<?xml version="1.0" encoding="UTF-8"?>
<svg id="Layer_1" xmlns="http://www.w3.org/2000/svg" version="1.1" xmlns:xlink="http://www.w3.org/1999/xlink" viewBox="0 0 1335 221">
  <!-- Generator: Adobe Illustrator 29.8.1, SVG Export Plug-In . SVG Version: 2.1.1 Build 2)  -->
  <defs>
    <style>
      .st0 {
        fill: url(#linear-gradient2);
      }

      .st1 {
        font-family: FranklinGothic-Medium, 'Franklin Gothic Medium';
        font-size: 181.24px;
        font-weight: 500;
        letter-spacing: .07em;
      }

      .st2 {
        fill: #fff;
      }

      .st3 {
        fill: url(#linear-gradient1);
      }

      .st4 {
        fill: #fafcfe;
      }

      .st5 {
        fill: none;
      }

      .st6 {
        fill: #97a3b7;
      }

      .st7 {
        fill: url(#linear-gradient4);
      }

      .st8 {
        fill: url(#linear-gradient3);
      }

      .st9 {
        fill: #fbfcfe;
      }

      .st10 {
        fill: url(#linear-gradient);
      }

      .st11 {
        fill: #f9fbfe;
      }

      .st12 {
        clip-path: url(#clippath);
      }
    </style>
    <linearGradient id="linear-gradient" x1="846.85" y1="218" x2="846.85" y2="7" gradientTransform="translate(0 222) scale(1 -1)" gradientUnits="userSpaceOnUse">
      <stop offset="0" stop-color="#b666fa"/>
      <stop offset="1" stop-color="#a347ec"/>
    </linearGradient>
    <linearGradient id="linear-gradient1" x1="952.68" y1="218" x2="952.68" y2="7" gradientTransform="translate(0 222) scale(1 -1)" gradientUnits="userSpaceOnUse">
      <stop offset="0" stop-color="#b666fa"/>
      <stop offset="1" stop-color="#a347ec"/>
    </linearGradient>
    <linearGradient id="linear-gradient2" x1="1053.51" y1="218" x2="1053.51" y2="7" gradientTransform="translate(0 222) scale(1 -1)" gradientUnits="userSpaceOnUse">
      <stop offset="0" stop-color="#b666fa"/>
      <stop offset="1" stop-color="#a347ec"/>
    </linearGradient>
    <linearGradient id="linear-gradient3" x1="1137.57" y1="218" x2="1137.57" y2="7" gradientTransform="translate(0 222) scale(1 -1)" gradientUnits="userSpaceOnUse">
      <stop offset="0" stop-color="#b666fa"/>
      <stop offset="1" stop-color="#a347ec"/>
    </linearGradient>
    <clipPath id="clippath">
      <rect class="st5" y="12" width="196" height="196"/>
    </clipPath>
    <linearGradient id="linear-gradient4" x1="26.41" y1="30.08" x2="183.91" y2="210.08" gradientTransform="translate(0 222) scale(1 -1)" gradientUnits="userSpaceOnUse">
      <stop offset="0" stop-color="#8135fe"/>
      <stop offset="1" stop-color="#e8a6ff"/>
    </linearGradient>
  </defs>
  <path class="st10" d="M855.57,177.61c-11.85,0-22.66-2.79-32.42-8.37-9.65-5.69-17.26-13.36-22.84-23.01-5.58-9.64-8.37-20.22-8.37-31.72s2.67-22.25,8.02-31.9c5.46-9.76,13.02-17.43,22.66-23.01,9.65-5.69,20.63-8.54,32.95-8.54,9.88,0,18.36,1.57,25.45,4.71,7.2,3.02,13.6,7.84,19.17,14.47l-17.26,14.99c-7.32-7.67-16.44-11.5-27.37-11.5-7.67,0-14.41,1.86-20.22,5.58-5.81,3.6-10.28,8.54-13.42,14.82-3.14,6.16-4.71,12.96-4.71,20.4s1.57,14.24,4.71,20.4c3.25,6.16,7.79,11.04,13.6,14.64,5.93,3.6,12.78,5.4,20.57,5.4,11.39,0,20.69-3.95,27.89-11.85l17.78,15.16c-4.88,5.93-11.27,10.63-19.17,14.12-7.79,3.49-16.79,5.23-27.02,5.23Z"/>
  <path class="st3" d="M909.98,48.09h23.53v49.16c4.88-9.76,14-14.64,27.37-14.64,6.51,0,12.38,1.57,17.6,4.71,5.23,3.02,9.36,7.38,12.38,13.07,3.02,5.58,4.53,12.09,4.53,19.52v55.43h-23.53v-49.68c0-7.55-1.74-13.19-5.23-16.91-3.49-3.72-8.25-5.58-14.29-5.58-5.34,0-9.82,1.92-13.42,5.75-3.6,3.72-5.4,9.3-5.4,16.73v49.68h-23.53V48.09Z"/>
  <path class="st0" d="M1049.85,177.61c-8.13,0-15.63-2.09-22.49-6.27-6.85-4.3-12.31-10.05-16.38-17.26-3.95-7.21-5.93-15.11-5.93-23.71s1.98-16.5,5.93-23.71c4.07-7.32,9.53-13.13,16.38-17.43,6.86-4.3,14.36-6.45,22.49-6.45,7.44,0,13.42,1.39,17.96,4.18,4.64,2.79,8.25,6.8,10.8,12.03v-14.29h23.36v90.64h-22.83v-14.82c-2.68,5.46-6.34,9.7-10.99,12.73-4.53,2.9-10.63,4.36-18.3,4.36ZM1028.59,130.2c0,4.65,1.04,9.01,3.13,13.07,2.21,3.95,5.17,7.15,8.89,9.59,3.84,2.32,8.2,3.49,13.08,3.49s9.41-1.16,13.24-3.49c3.96-2.32,6.98-5.46,9.07-9.41,2.09-3.95,3.14-8.31,3.14-13.07s-1.05-9.12-3.14-13.07c-2.09-4.07-5.11-7.26-9.07-9.59-3.83-2.44-8.25-3.66-13.24-3.66s-9.24,1.22-13.08,3.66c-3.83,2.32-6.8,5.46-8.89,9.41-2.09,3.95-3.13,8.31-3.13,13.07Z"/>
  <path class="st8" d="M1150.29,175.35c-9.18,0-16.09-2.27-20.74-6.8-4.65-4.53-6.97-11.62-6.97-21.27v-42.53h-12.73v-20.05h12.73v-18.3l23.53-2.44v20.74h19.18v20.05h-19.18v41.31c0,5.58,2.44,8.37,7.32,8.37h9.76v20.92h-12.9Z"/>
  <path class="st2" d="M98,48c35.9,0,65,25.13,65,56.14s-29.1,56.14-65,56.14c-7.36,0-14.43-1.06-21.03-3-7.37,5.73-18.8,10.55-34.29,14.43-.73.18-1.51.08-2.17-.29-1.43-.8-1.95-2.61-1.15-4.04l1.11-2.01c5.14-9.46,8.35-17.23,9.63-23.29-10.62-9.99-17.1-23.31-17.1-37.94,0-31,29.1-56.14,65-56.14Z"/>
  <g class="st12">
    <g>
      <rect class="st2" x="0" y="12" width="196.1" height="196.1" rx="64.76" ry="64.76"/>
      <rect class="st7" x="0" y="12" width="196.1" height="196.1" rx="64.76" ry="64.76"/>
    </g>
  </g>
  <path class="st6" d="M1200.74,176v-31.43h11.51c2.23,0,4.08.37,5.54,1.11,1.46.73,2.56,1.71,3.28,2.96.73,1.24,1.09,2.64,1.09,4.19,0,1.31-.24,2.42-.72,3.32-.48.89-1.12,1.61-1.93,2.15-.8.53-1.68.92-2.64,1.17v.31c1.04.05,2.06.39,3.05,1.01,1.01.61,1.83,1.49,2.49,2.62.65,1.14.98,2.52.98,4.14s-.38,3.05-1.13,4.33c-.75,1.27-1.91,2.28-3.47,3.02-1.57.74-3.57,1.1-6,1.1h-12.05ZM1205.48,171.93h6.85c2.27,0,3.89-.44,4.88-1.32.98-.88,1.47-1.98,1.47-3.3,0-.99-.25-1.9-.75-2.73-.5-.83-1.22-1.49-2.15-1.98-.92-.49-2.02-.74-3.29-.74h-7.01v10.07ZM1205.48,158.17h6.35c1.07,0,2.03-.21,2.87-.61.86-.41,1.54-.98,2.05-1.72.51-.75.76-1.63.76-2.64,0-1.3-.45-2.39-1.36-3.27-.91-.88-2.31-1.32-4.19-1.32h-6.48v9.56ZM1230.31,176v-31.43h19.71v4.08h-14.96v9.58h13.93v4.07h-13.93v9.62h15.14v4.08h-19.89ZM1256.1,148.65v-4.08h24.33v4.08h-9.81v27.35h-4.73v-27.35h-9.79ZM1286.04,176h-5.03l11.31-31.43h5.48l11.31,31.43h-5.04l-8.88-25.72h-.25l-8.9,25.72ZM1286.88,163.69h16.33v3.99h-16.33v-3.99Z"/>
  <path class="st4" d="M97.77,42.19q.53,0,1.06,0c5.74.03,11.23.46,16.8,1.94.32.08.63.16.96.25,11.54,3.07,21.52,9.14,30.16,17.29q.44.41.9.83c10.13,9.66,17.22,24.55,17.63,38.57.03,1.52.03,3.04.02,4.56q0,.48,0,.97c-.02,4.73-.22,9.24-1.45,13.83-.08.29-.15.57-.23.86-2.46,9.12-6.73,17.42-12.92,24.56-.31.36-.61.72-.92,1.09-9.95,11.39-23.66,19.01-38.53,21.71-.4.08-.81.15-1.22.23-3.7.65-7.31.79-11.05.78-.98,0-1.96,0-2.94.02-3.98.02-7.73-.37-11.63-1.15-.55-.11-1.09-.21-1.66-.33-.46-.13-.91-.25-1.38-.38-2.7-.09-5.02.92-7.54,1.83-.57.2-1.14.4-1.7.59-1.8.63-3.59,1.26-5.38,1.9-2.08.74-4.16,1.47-6.24,2.2-.83.29-1.66.59-2.48.89q-4.85,1.69-7.28.86c-1-1.49-.96-1.76-.78-3.47.05-.47.1-.94.15-1.42.42-3.52.86-7.04,1.32-10.56.1-.8.21-1.6.31-2.4.25-1.94.5-3.88.76-5.82-.27-.13-.54-.26-.82-.39-8.31-4.33-14.87-17.36-17.74-25.85-3.57-11.59-4.55-24.69-1.17-36.45.08-.29.16-.58.24-.88,2.73-9.7,7.92-18.03,14.66-25.43.37-.41.75-.82,1.13-1.24,7.9-8.27,18.06-13.74,28.84-17.28.3-.1.61-.21.92-.31,6.25-1.96,12.68-2.45,19.19-2.4ZM53.86,62.13q-.92.85-2.26,1.89c-9.55,8.53-14.99,21.21-17.07,33.59-.08.39-.16.78-.24,1.18-1.69,12.5,1.33,24.7,7.26,35.64.22.4.43.8.66,1.22,2.23,3.9,4.87,7.57,8.22,10.57.32.29.64.59.97.89.64.57,1.28,1.13,1.95,1.67,1.41,1.28,2.17,2.14,2.37,4.07-.1,1.62-.32,3.2-.57,4.81-.07.6-.14,1.19-.21,1.79-.21,1.85-.45,3.69-.69,5.53-.12.95-.25,1.89-.37,2.84-.11.85-.22,1.69-.33,2.54q-.18,1.33-.15,2.65c1.53-.28,2.97-.66,4.44-1.17.44-.15.87-.3,1.32-.45.47-.16.93-.32,1.41-.48.48-.16.96-.33,1.46-.5,1.02-.35,2.03-.69,3.05-1.04,1.56-.53,3.12-1.06,4.68-1.59.99-.34,1.97-.67,2.96-1.01.47-.16.94-.32,1.42-.48.43-.15.86-.3,1.31-.45.38-.13.76-.26,1.15-.39q.93-.31,1.8-.77c2.2-.11,4.13.16,6.27.63,14.47,3.18,30.62,1.03,43.7-5.89.28-.15.57-.29.86-.44,9.57-4.96,17.97-12.29,23.69-21.48.17-.28.34-.55.52-.84,7.76-12.64,11.01-28.43,7.58-42.99-.07-.29-.14-.58-.22-.89-.07-.3-.14-.6-.21-.91-2.25-9.26-6.83-17.27-12.94-24.52-.29-.34-.58-.69-.88-1.04-8.8-10.17-20.91-16.28-33.76-19.56-.31-.08-.62-.16-.93-.24-4.64-1.13-9.33-1.2-14.08-1.21-.3,0-.59,0-.9,0-16.01-.05-31.53,5.89-43.23,16.83Z"/>
  <path class="st2" d="M137.55,102h7.45v23.23h-7.45v-23.23Z"/>
  <path class="st9" d="M126.59,88.41c-.15,5.07-.29,9.99-.44,14.9-1.68-1.12-3.3-1.73-5.26-2.19-3.39-.29-5.9.08-8.76,1.94-3.15,2.44-4.48,5.8-4.97,9.66-.17,3.43.62,6.58,2.83,9.26,2.86,2.78,5.51,3.93,9.45,4.26,3.02-.29,4.82-1.07,7.03-3.1.19-.19.38-.36.56-.54.15.89.29,1.76.44,2.63h7.01v-36.82h-7.89ZM127.16,115.98c-.7,1.4-1.34,2.16-2.63,3.09-2.5.8-4.5.92-6.88-.27-1.5-1.32-2.33-2.2-2.6-4.23-.12-2.5.16-4.06,1.89-5.99,2.04-1.28,4.32-1.51,6.58-.88,1.81.51,2.42,1.43,3.45,2.99.66,1.87.89,3.39.19,5.3Z"/>
  <path class="st11" d="M70.04,88.41c-.15,5.22-.29,10.28-.44,15.34q-1.32-1.32-2.14-1.73c-3.34-1.16-6.66-1.53-10.03-.24-3.2,1.64-5.2,4.43-6.4,7.77-.95,3.99-.62,8.18,1.55,11.71,1.94,2.56,4.6,3.98,7.71,4.69,3.41.45,6.09-.11,8.89-2.11.29-.27.57-.53.85-.79.15.75.29,1.47.44,2.19h7.45v-36.82h-7.89ZM69.93,117.01c-1.28,1.54-2.22,2.39-4.28,2.63-2.59.09-4.07-.25-6.13-1.86-1.3-2.07-1.5-3.74-1.13-6.1.46-1.67,1.35-2.7,2.81-3.59,2.2-.9,4.77-.93,6.84.13,1.47.75,1.85,1.43,2.44,2.99.31,2.04.48,3.95-.54,5.8Z"/>
  <path class="st9" d="M142.81,90.16c5.58,2.38,2.51,9.74-3.07,8.33-5.77-1.84-2.47-9.87,3.07-8.33Z"/>
  <path class="st4" d="M105.11,109.89c-.85-2.54-1.8-4.89-4.03-6.53-6.44-3.9-14.34-2.89-19.21,3.03-2.09,3.13-2.7,5.92-2.19,9.64.79,3.76,2.96,6.24,6.14,8.33,4.84,2.15,9.07,2.3,14.03.44,1.84-.99,3.09-2.01,3.95-3.95-.27-.19-.54-.38-.8-.56-.36-.25-.71-.49-1.06-.73-1.24-.86-2.31-1.63-3.84-1.78q-.85.89-1.81,1.59c-1.62.77-3.02.85-4.77.6q-2.6-1.1-3.95-3.95h17.54v-6.14ZM97.66,110.77h-10.08c.48-2.41.72-2.64,2.63-3.95,1.34-.67,2.52-.88,3.95-.44,1.73.53,2.41,1.37,3.3,3.02.21.38.21.91.21,1.36Z"/>
  <text class="st1" transform="translate(265.29 171.93) scale(1.17 1)"><tspan x="0" y="0">Dedi</tspan></text>
</svg>