<?xml version="1.0" encoding="UTF-8"?>
<svg id="Layer_1" xmlns="http://www.w3.org/2000/svg" version="1.1" xmlns:xlink="http://www.w3.org/1999/xlink" viewBox="0 0 1193 221">
  <!-- Generator: Adobe Illustrator 29.8.1, SVG Export Plug-In . SVG Version: 2.1.1 Build 2)  -->
  <defs>
    <style>
      .st0 {
        fill: url(#linear-gradient2);
      }

      .st1 {
        font-family: FranklinGothic-Medium, 'Franklin Gothic Medium';
        font-size: 181.24px;
        font-weight: 500;
        letter-spacing: .07em;
      }

      .st2 {
        fill: #fff;
      }

      .st3 {
        fill: url(#linear-gradient1);
      }

      .st4 {
        fill: #fafcfe;
      }

      .st5 {
        fill: none;
      }

      .st6 {
        fill: url(#linear-gradient4);
      }

      .st7 {
        fill: url(#linear-gradient3);
      }

      .st8 {
        fill: #fbfcfe;
      }

      .st9 {
        fill: url(#linear-gradient);
      }

      .st10 {
        fill: #f9fbfe;
      }

      .st11 {
        clip-path: url(#clippath);
      }
    </style>
    <linearGradient id="linear-gradient" x1="774.8" y1="203.4" x2="884.9" y2="-64.92" gradientTransform="translate(0 222) scale(1 -1)" gradientUnits="userSpaceOnUse">
      <stop offset="0" stop-color="#7f99ff"/>
      <stop offset="1" stop-color="#0054a2"/>
    </linearGradient>
    <linearGradient id="linear-gradient1" x1="857.91" y1="237.5" x2="968.01" y2="-30.82" gradientTransform="translate(0 222) scale(1 -1)" gradientUnits="userSpaceOnUse">
      <stop offset="0" stop-color="#a5acdf"/>
      <stop offset="1" stop-color="#36c"/>
    </linearGradient>
    <linearGradient id="linear-gradient2" x1="964.47" y1="281.23" x2="1074.57" y2="12.9" gradientTransform="translate(0 222) scale(1 -1)" gradientUnits="userSpaceOnUse">
      <stop offset="0" stop-color="#a5acdf"/>
      <stop offset="1" stop-color="#36c"/>
    </linearGradient>
    <linearGradient id="linear-gradient3" x1="1046.5" y1="314.89" x2="1156.6" y2="46.56" gradientTransform="translate(0 222) scale(1 -1)" gradientUnits="userSpaceOnUse">
      <stop offset="0" stop-color="#a5acdf"/>
      <stop offset="1" stop-color="#36c"/>
    </linearGradient>
    <clipPath id="clippath">
      <rect class="st5" x="6.32" y="12.22" width="196.1" height="196.1"/>
    </clipPath>
    <linearGradient id="linear-gradient4" x1="32.39" y1="29.38" x2="190.77" y2="210.39" gradientTransform="translate(0 222) scale(1 -1)" gradientUnits="userSpaceOnUse">
      <stop offset="0" stop-color="#1e7bf3"/>
      <stop offset=".99" stop-color="#a9bcff"/>
    </linearGradient>
  </defs>
  <path class="st9" d="M814.88,177.41c-13.02,0-24.89-3.06-35.61-9.19-10.59-6.25-18.95-14.68-25.08-25.27-6.13-10.59-9.19-22.21-9.19-34.84s2.94-24.44,8.81-35.03c6-10.72,14.29-19.14,24.89-25.27,10.59-6.25,22.65-9.38,36.18-9.38,10.85,0,20.16,1.72,27.95,5.17,7.91,3.32,14.93,8.61,21.06,15.89l-18.96,16.46c-8.04-8.42-18.06-12.63-30.06-12.63-8.42,0-15.82,2.04-22.21,6.13-6.38,3.96-11.29,9.38-14.74,16.27-3.45,6.76-5.17,14.23-5.17,22.4s1.72,15.63,5.17,22.4c3.57,6.76,8.55,12.12,14.93,16.08,6.51,3.96,14.04,5.93,22.59,5.93,12.51,0,22.72-4.34,30.63-13.02l19.52,16.65c-5.36,6.51-12.38,11.68-21.05,15.51-8.55,3.83-18.44,5.74-29.67,5.74Z"/>
  <path class="st3" d="M874.63,35.18h25.84v53.98c5.36-10.72,15.38-16.08,30.05-16.08,7.14,0,13.59,1.72,19.33,5.17,5.74,3.32,10.27,8.1,13.59,14.36,3.32,6.13,4.97,13.27,4.97,21.44v60.87h-25.84v-54.56c0-8.29-1.91-14.48-5.74-18.57-3.82-4.08-9.06-6.13-15.69-6.13-5.87,0-10.79,2.1-14.74,6.32-3.96,4.08-5.93,10.21-5.93,18.38v54.56h-25.84V35.18Z"/>
  <path class="st0" d="M1028.24,177.41c-8.93,0-17.16-2.3-24.69-6.89-7.53-4.72-13.53-11.04-17.99-18.95-4.34-7.91-6.51-16.59-6.51-26.03s2.17-18.12,6.51-26.03c4.46-8.04,10.46-14.42,17.99-19.14,7.53-4.72,15.76-7.08,24.69-7.08,8.17,0,14.74,1.53,19.72,4.59,5.11,3.06,9.06,7.47,11.87,13.21v-15.7h25.65v99.54h-25.08v-16.27c-2.94,6-6.95,10.66-12.06,13.97-4.97,3.19-11.68,4.79-20.1,4.79ZM1004.89,125.34c0,5.11,1.15,9.89,3.44,14.36,2.43,4.34,5.68,7.85,9.77,10.53,4.21,2.55,8.99,3.83,14.35,3.83s10.34-1.28,14.55-3.83c4.34-2.55,7.66-6,9.96-10.34,2.29-4.34,3.44-9.13,3.44-14.36s-1.15-10.02-3.44-14.36c-2.3-4.47-5.62-7.98-9.96-10.53-4.21-2.68-9.06-4.02-14.55-4.02s-10.14,1.34-14.35,4.02c-4.22,2.55-7.47,6-9.77,10.34-2.29,4.34-3.44,9.12-3.44,14.36Z"/>
  <path class="st7" d="M1138.54,174.92c-10.08,0-17.68-2.49-22.78-7.47-5.11-4.98-7.66-12.76-7.66-23.35v-46.71h-13.98v-22.01h13.98v-20.1l25.84-2.68v22.78h21.05v22.01h-21.05v45.37c0,6.13,2.67,9.19,8.03,9.19h10.73v22.97h-14.17Z"/>
  <text class="st1" transform="translate(242.75 167.32) scale(1.17 1)"><tspan x="0" y="0">Dedi</tspan></text>
  <g class="st11">
    <g>
      <rect class="st2" x="6.32" y="12.22" width="196.21" height="196.21" rx="21.65" ry="21.65"/>
      <path class="st6" d="M34.55,23.49c28.09-15,105.65-14.55,135.48-2.02,14.67,5.93,23.07,18.55,26.78,33.6,3.95,15.65,5.04,31.23,5.65,49,.03,24.43-.6,64.21-15.69,82.8-8.05,10.1-20.74,14.76-33.37,17.3-29.61,5.61-66.98,5.63-96.72.25-30.83-5.59-42.67-20.75-47.28-51.61-3.68-23.71-3.97-52.42-1.18-76.2,2.04-19.81,7.33-43.65,26.19-53.05l.13-.07Z"/>
      <path class="st4" d="M104.14,43.05q.53,0,1.06,0c5.74.03,11.23.46,16.8,1.94.32.08.63.16.96.25,11.54,3.07,21.52,9.14,30.16,17.29q.44.41.9.83c10.13,9.66,17.22,24.55,17.63,38.57.03,1.52.03,3.04.02,4.56q0,.48,0,.97c-.02,4.73-.22,9.24-1.45,13.83-.08.29-.15.57-.23.86-2.46,9.12-6.73,17.42-12.92,24.56-.31.36-.61.72-.92,1.09-9.95,11.39-23.66,19.01-38.53,21.71-.4.08-.81.15-1.22.23-3.7.65-7.31.79-11.05.78-.98,0-1.96,0-2.94.02-3.98.02-7.73-.37-11.63-1.15-.55-.11-1.09-.21-1.66-.33-.46-.13-.91-.25-1.38-.38-2.7-.09-5.02.92-7.54,1.83-.57.2-1.14.4-1.7.59-1.8.63-3.59,1.26-5.38,1.9-2.08.74-4.16,1.47-6.24,2.2-.83.29-1.66.59-2.48.89q-4.85,1.69-7.28.86c-1-1.49-.96-1.76-.78-3.47.05-.47.1-.94.15-1.42.42-3.52.86-7.04,1.32-10.56.1-.8.21-1.6.31-2.4.25-1.94.5-3.88.76-5.82-.27-.13-.54-.26-.82-.39-8.31-4.33-14.87-17.36-17.74-25.85-3.57-11.59-4.55-24.69-1.17-36.45.08-.29.16-.58.24-.88,2.73-9.7,7.92-18.03,14.66-25.43.37-.41.75-.82,1.13-1.24,7.9-8.27,18.06-13.74,28.84-17.28.3-.1.61-.21.92-.31,6.25-1.96,12.68-2.45,19.19-2.4ZM60.24,62.99q-.92.85-2.26,1.89c-9.55,8.53-14.99,21.21-17.07,33.59-.08.39-.16.78-.24,1.18-1.69,12.5,1.33,24.7,7.26,35.64.22.4.43.8.66,1.22,2.23,3.9,4.87,7.57,8.22,10.57.32.29.64.59.97.89.64.57,1.28,1.13,1.95,1.67,1.41,1.28,2.17,2.14,2.37,4.07-.1,1.62-.32,3.2-.57,4.81-.07.6-.14,1.19-.21,1.79-.21,1.85-.45,3.69-.69,5.53-.12.95-.25,1.89-.37,2.84-.11.85-.22,1.69-.33,2.54q-.18,1.33-.15,2.65c1.53-.28,2.97-.66,4.44-1.17.44-.15.87-.3,1.32-.45.47-.16.93-.32,1.41-.48.48-.16.96-.33,1.46-.5,1.02-.35,2.03-.69,3.05-1.04,1.56-.53,3.12-1.06,4.68-1.59.99-.34,1.97-.67,2.96-1.01.47-.16.94-.32,1.42-.48.43-.15.86-.3,1.31-.45.38-.13.76-.26,1.15-.39q.93-.31,1.8-.77c2.2-.11,4.13.16,6.27.63,14.47,3.18,30.62,1.03,43.7-5.89.28-.15.57-.29.86-.44,9.57-4.96,17.97-12.29,23.69-21.48.17-.28.34-.55.52-.84,7.76-12.64,11.01-28.43,7.58-42.99-.07-.29-.14-.58-.22-.89-.07-.3-.14-.6-.21-.91-2.25-9.26-6.83-17.27-12.94-24.52-.29-.34-.58-.69-.88-1.04-8.8-10.17-20.91-16.28-33.76-19.56-.31-.08-.62-.16-.93-.24-4.64-1.13-9.33-1.2-14.08-1.21-.3,0-.59,0-.9,0-16.01-.05-31.53,5.89-43.23,16.83Z"/>
      <path class="st2" d="M143.92,102.86h7.45v23.23h-7.45v-23.23Z"/>
      <path class="st8" d="M132.96,89.27c-.15,5.07-.29,9.99-.44,14.9-1.68-1.12-3.3-1.73-5.26-2.19-3.39-.29-5.9.08-8.76,1.94-3.15,2.44-4.48,5.8-4.97,9.66-.17,3.43.62,6.58,2.83,9.26,2.86,2.78,5.51,3.93,9.45,4.26,3.02-.29,4.82-1.07,7.03-3.1.19-.19.38-.36.56-.54.15.89.29,1.76.44,2.63h7.01v-36.82h-7.89ZM133.54,116.84c-.7,1.4-1.34,2.16-2.63,3.09-2.5.8-4.5.92-6.88-.27-1.5-1.32-2.33-2.2-2.6-4.23-.12-2.5.16-4.06,1.89-5.99,2.04-1.28,4.32-1.51,6.58-.88,1.81.51,2.42,1.43,3.45,2.99.66,1.87.89,3.39.19,5.3Z"/>
      <path class="st10" d="M76.41,89.27c-.15,5.22-.29,10.28-.44,15.34q-1.32-1.32-2.14-1.73c-3.34-1.16-6.66-1.53-10.03-.24-3.2,1.64-5.2,4.43-6.4,7.77-.95,3.99-.62,8.18,1.55,11.71,1.94,2.56,4.6,3.98,7.71,4.69,3.41.45,6.09-.11,8.89-2.11.29-.27.57-.53.85-.79.15.75.29,1.47.44,2.19h7.45v-36.82h-7.89ZM76.31,117.87c-1.28,1.54-2.22,2.39-4.28,2.63-2.59.09-4.07-.25-6.13-1.86-1.3-2.07-1.5-3.74-1.13-6.1.46-1.67,1.35-2.7,2.81-3.59,2.2-.9,4.77-.93,6.84.13,1.47.75,1.85,1.43,2.44,2.99.31,2.04.48,3.95-.54,5.8Z"/>
      <path class="st8" d="M149.18,91.02c5.58,2.38,2.51,9.74-3.07,8.33-5.77-1.84-2.47-9.87,3.07-8.33Z"/>
      <path class="st4" d="M111.48,110.75c-.85-2.54-1.8-4.89-4.03-6.53-6.44-3.9-14.34-2.89-19.21,3.03-2.09,3.13-2.7,5.92-2.19,9.64.79,3.76,2.96,6.24,6.14,8.33,4.84,2.15,9.07,2.3,14.03.44,1.84-.99,3.09-2.01,3.95-3.95-.27-.19-.54-.38-.8-.56-.36-.25-.71-.49-1.06-.73-1.24-.86-2.31-1.63-3.84-1.78q-.85.89-1.81,1.59c-1.62.77-3.02.85-4.77.6q-2.6-1.1-3.95-3.95h17.54v-6.14ZM104.03,111.63h-10.08c.48-2.41.72-2.64,2.63-3.95,1.34-.67,2.52-.88,3.95-.44,1.73.53,2.41,1.37,3.3,3.02.21.38.21.91.21,1.36Z"/>
    </g>
  </g>
</svg>