<?xml version="1.0" encoding="UTF-8"?>
<svg id="Layer_1" xmlns="http://www.w3.org/2000/svg" version="1.1" xmlns:xlink="http://www.w3.org/1999/xlink" viewBox="0 0 1193 221">
  <!-- Generator: Adobe Illustrator 29.8.1, SVG Export Plug-In . SVG Version: 2.1.1 Build 2)  -->
  <defs>
    <style>
      .st0 {
        fill: url(#linear-gradient2);
      }

      .st1 {
        fill: #fff;
      }

      .st2 {
        fill: url(#linear-gradient1);
      }

      .st3 {
        fill: #fafcfe;
      }

      .st4 {
        fill: none;
      }

      .st5 {
        fill: url(#linear-gradient4);
      }

      .st6 {
        font-family: FranklinGothic-Medium, 'Franklin Gothic Medium';
        font-size: 188.24px;
        font-weight: 500;
        letter-spacing: .07em;
      }

      .st7 {
        fill: url(#linear-gradient3);
      }

      .st8 {
        fill: #fbfcfe;
      }

      .st9 {
        fill: url(#linear-gradient);
      }

      .st10 {
        fill: #f9fbfe;
      }

      .st11 {
        clip-path: url(#clippath);
      }
    </style>
    <linearGradient id="linear-gradient" x1="798.13" y1="212.14" x2="912.48" y2="-66.53" gradientTransform="translate(0 222) scale(1 -1)" gradientUnits="userSpaceOnUse">
      <stop offset="0" stop-color="#7f99ff"/>
      <stop offset="1" stop-color="#0054a2"/>
    </linearGradient>
    <linearGradient id="linear-gradient1" x1="884.45" y1="247.56" x2="998.8" y2="-31.11" gradientTransform="translate(0 222) scale(1 -1)" gradientUnits="userSpaceOnUse">
      <stop offset="0" stop-color="#a5acdf"/>
      <stop offset="1" stop-color="#36c"/>
    </linearGradient>
    <linearGradient id="linear-gradient2" x1="995.12" y1="292.97" x2="1109.47" y2="14.3" xlink:href="#linear-gradient1"/>
    <linearGradient id="linear-gradient3" x1="1080.31" y1="327.93" x2="1194.66" y2="49.25" xlink:href="#linear-gradient1"/>
    <clipPath id="clippath">
      <rect class="st4" y="3.23" width="203.67" height="203.67"/>
    </clipPath>
    <linearGradient id="linear-gradient4" x1="27.08" y1="31.41" x2="191.56" y2="219.4" gradientTransform="translate(0 222) scale(1 -1)" gradientUnits="userSpaceOnUse">
      <stop offset="0" stop-color="#1e7bf3"/>
      <stop offset=".99" stop-color="#a9bcff"/>
    </linearGradient>
  </defs>
  <path class="st1" d="M98,48c35.9,0,65,25.13,65,56.14s-29.1,56.14-65,56.14c-7.36,0-14.43-1.06-21.03-3-7.37,5.73-18.8,10.55-34.29,14.43-.73.18-1.51.08-2.17-.29-1.43-.8-1.95-2.61-1.15-4.04l1.11-2.01c5.14-9.46,8.35-17.23,9.63-23.29-10.62-9.99-17.1-23.31-17.1-37.94,0-31,29.1-56.14,65-56.14Z"/>
  <path class="st9" d="M839.76,174.8c-13.52,0-25.85-3.18-36.98-9.54-11-6.49-19.68-15.24-26.04-26.24-6.36-11-9.54-23.06-9.54-36.18s3.05-25.38,9.15-36.38c6.23-11.13,14.84-19.88,25.85-26.24,11-6.49,23.53-9.74,37.58-9.74,11.27,0,20.94,1.79,29.03,5.37,8.22,3.45,15.5,8.95,21.87,16.5l-19.69,17.1c-8.35-8.75-18.76-13.12-31.21-13.12-8.75,0-16.44,2.12-23.06,6.36-6.63,4.11-11.73,9.74-15.31,16.9-3.58,7.03-5.37,14.78-5.37,23.26s1.79,16.24,5.37,23.26c3.71,7.03,8.88,12.59,15.51,16.7,6.76,4.11,14.58,6.16,23.46,6.16,12.99,0,23.59-4.51,31.81-13.52l20.28,17.3c-5.57,6.76-12.85,12.13-21.87,16.1-8.88,3.98-19.15,5.96-30.82,5.96Z"/>
  <path class="st2" d="M901.81,27.08h26.84v56.07c5.57-11.13,15.97-16.7,31.21-16.7,7.42,0,14.12,1.79,20.08,5.37,5.96,3.45,10.67,8.42,14.12,14.91,3.45,6.36,5.17,13.78,5.17,22.27v63.22h-26.84v-56.66c0-8.61-1.98-15.04-5.96-19.28-3.97-4.24-9.41-6.36-16.3-6.36-6.1,0-11.2,2.19-15.31,6.56-4.11,4.24-6.16,10.6-6.16,19.09v56.66h-26.84V27.08Z"/>
  <path class="st0" d="M1061.35,174.8c-9.28,0-17.83-2.39-25.65-7.16-7.82-4.9-14.05-11.46-18.69-19.68-4.51-8.22-6.76-17.23-6.76-27.04s2.25-18.82,6.76-27.04c4.63-8.35,10.87-14.98,18.69-19.88,7.82-4.9,16.37-7.36,25.65-7.36,8.49,0,15.31,1.59,20.48,4.77,5.3,3.18,9.41,7.75,12.32,13.72v-16.3h26.64v103.38h-26.04v-16.9c-3.05,6.23-7.22,11.07-12.52,14.51-5.17,3.31-12.13,4.97-20.88,4.97ZM1037.09,120.72c0,5.3,1.19,10.27,3.57,14.91,2.53,4.51,5.9,8.15,10.15,10.94,4.37,2.65,9.34,3.98,14.9,3.98s10.74-1.33,15.11-3.98c4.51-2.65,7.95-6.23,10.34-10.74,2.38-4.51,3.57-9.48,3.57-14.91s-1.19-10.4-3.57-14.91c-2.39-4.64-5.84-8.28-10.34-10.93-4.37-2.78-9.41-4.18-15.11-4.18s-10.53,1.39-14.9,4.18c-4.38,2.65-7.76,6.23-10.15,10.74-2.38,4.51-3.57,9.48-3.57,14.91Z"/>
  <path class="st7" d="M1175.91,172.21c-10.47,0-18.36-2.58-23.65-7.75-5.3-5.17-7.95-13.25-7.95-24.26v-48.51h-14.52v-22.86h14.52v-20.88l26.84-2.78v23.66h21.86v22.86h-21.86v47.12c0,6.36,2.78,9.54,8.34,9.54h11.14v23.86h-14.71Z"/>
  <text class="st6" transform="translate(245.55 164.32) scale(1.17 1)"><tspan x="0" y="0">Dedi</tspan></text>
  <g class="st11">
    <g>
      <rect class="st1" x="0" y="3.23" width="203.78" height="203.78" rx="21.65" ry="21.65"/>
      <path class="st5" d="M29.32,14.94C58.49-.64,139.05-.18,170.02,12.83c15.23,6.16,23.96,19.26,27.82,34.9,4.11,16.25,5.23,32.44,5.87,50.89.03,25.37-.62,66.69-16.3,86-8.36,10.49-21.54,15.33-34.66,17.97-30.76,5.83-69.56,5.85-100.45.26-32.02-5.8-44.32-21.55-49.1-53.6C-.61,124.61-.92,94.79,1.98,70.1c2.12-20.57,7.61-45.33,27.2-55.09l.13-.07Z"/>
      <path class="st3" d="M101.59,35.25q.55,0,1.11,0c5.97.03,11.66.48,17.45,2.02.33.09.66.17,1,.26,11.99,3.19,22.35,9.49,31.33,17.95q.46.42.93.86c10.52,10.04,17.88,25.5,18.31,40.06.03,1.58.03,3.15.02,4.73q0,.5,0,1c-.02,4.91-.23,9.59-1.51,14.36-.08.3-.16.59-.24.9-2.55,9.47-6.99,18.09-13.42,25.51-.32.37-.63.74-.96,1.13-10.33,11.83-24.57,19.75-40.02,22.55-.42.08-.84.16-1.27.24-3.84.67-7.59.82-11.48.81-1.02,0-2.03,0-3.05.02-4.13.02-8.02-.38-12.08-1.19-.57-.11-1.14-.22-1.72-.34-.47-.13-.95-.26-1.44-.39-2.81-.1-5.21.96-7.83,1.9-.59.21-1.18.41-1.77.62-1.86.65-3.73,1.31-5.59,1.97-2.16.77-4.32,1.53-6.48,2.28-.86.3-1.72.61-2.58.92q-5.04,1.76-7.56.89c-1.03-1.55-1-1.83-.81-3.61.05-.49.1-.97.15-1.48.43-3.66.9-7.31,1.37-10.97.11-.83.22-1.66.32-2.49.26-2.02.52-4.03.79-6.05-.28-.13-.56-.27-.85-.4-8.63-4.5-15.44-18.03-18.43-26.85-3.7-12.04-4.72-25.64-1.21-37.86.08-.3.17-.6.25-.91,2.84-10.07,8.23-18.73,15.23-26.41.39-.43.77-.85,1.17-1.29,8.21-8.59,18.76-14.27,29.96-17.95.32-.11.63-.21.96-.32,6.49-2.03,13.17-2.55,19.93-2.49ZM55.99,55.96q-.96.88-2.35,1.97c-9.91,8.86-15.57,22.02-17.73,34.89-.08.41-.17.81-.25,1.23-1.75,12.98,1.38,25.65,7.54,37.01.22.42.45.83.68,1.26,2.31,4.05,5.06,7.87,8.53,10.98.33.31.67.61,1.01.93.66.59,1.33,1.17,2.02,1.73,1.47,1.33,2.26,2.22,2.46,4.23-.11,1.69-.33,3.32-.59,4.99-.08.62-.15,1.24-.22,1.86-.22,1.92-.47,3.83-.72,5.74-.13.98-.25,1.96-.38,2.95-.11.88-.23,1.76-.34,2.63q-.19,1.38-.16,2.76c1.59-.29,3.08-.69,4.61-1.21.45-.15.91-.31,1.37-.47.48-.17.97-.33,1.46-.5.5-.17,1-.34,1.51-.52,1.05-.36,2.11-.72,3.16-1.08,1.62-.55,3.24-1.1,4.86-1.65,1.02-.35,2.05-.7,3.07-1.05.49-.17.97-.33,1.47-.5.45-.15.9-.31,1.36-.47.4-.14.79-.27,1.2-.41q.97-.33,1.87-.8c2.28-.11,4.29.16,6.52.65,15.02,3.3,31.8,1.07,45.39-6.12.29-.15.59-.3.89-.46,9.94-5.15,18.66-12.77,24.6-22.3.18-.29.36-.57.54-.87,8.06-13.12,11.43-29.53,7.88-44.65-.07-.3-.15-.61-.22-.92-.07-.31-.15-.62-.22-.94-2.34-9.62-7.09-17.93-13.44-25.47-.3-.36-.6-.71-.91-1.08-9.13-10.56-21.72-16.91-35.06-20.32-.32-.08-.64-.16-.97-.25-4.82-1.17-9.69-1.24-14.63-1.26-.31,0-.62,0-.93,0-16.62-.05-32.74,6.12-44.89,17.48Z"/>
      <path class="st1" d="M142.91,97.37h7.74v24.13h-7.74v-24.13Z"/>
      <path class="st8" d="M131.53,83.25c-.15,5.26-.31,10.37-.46,15.48-1.74-1.16-3.43-1.8-5.46-2.28-3.52-.3-6.12.08-9.09,2.02-3.27,2.54-4.65,6.02-5.16,10.04-.18,3.56.64,6.84,2.94,9.61,2.97,2.88,5.73,4.08,9.81,4.43,3.14-.3,5.01-1.12,7.3-3.22.2-.19.39-.38.59-.57.15.93.31,1.83.46,2.73h7.28v-38.24h-8.2ZM132.12,111.89c-.73,1.45-1.4,2.25-2.73,3.21-2.6.83-4.67.95-7.14-.28-1.56-1.37-2.42-2.29-2.71-4.39-.12-2.6.16-4.22,1.97-6.22,2.12-1.33,4.48-1.57,6.83-.91,1.88.53,2.51,1.49,3.59,3.1.69,1.94.92,3.52.2,5.5Z"/>
      <path class="st10" d="M72.8,83.25c-.15,5.42-.31,10.68-.46,15.94q-1.37-1.37-2.22-1.8c-3.47-1.21-6.92-1.59-10.41-.25-3.32,1.7-5.41,4.6-6.64,8.07-.98,4.15-.64,8.5,1.61,12.16,2.02,2.66,4.78,4.14,8.01,4.87,3.54.47,6.33-.12,9.24-2.19.3-.28.59-.55.88-.83.15.77.31,1.53.46,2.28h7.74v-38.24h-8.2ZM72.68,112.96c-1.32,1.59-2.31,2.48-4.45,2.73-2.69.09-4.23-.26-6.37-1.93-1.35-2.15-1.56-3.89-1.17-6.34.48-1.73,1.4-2.81,2.92-3.73,2.29-.94,4.95-.97,7.11.14,1.53.78,1.93,1.48,2.53,3.1.33,2.12.5,4.1-.57,6.03Z"/>
      <path class="st8" d="M148.37,85.08c5.79,2.47,2.61,10.12-3.19,8.65-5.99-1.91-2.56-10.25,3.19-8.65Z"/>
      <path class="st3" d="M109.22,105.56c-.88-2.64-1.87-5.08-4.18-6.78-6.69-4.05-14.89-3-19.95,3.14-2.17,3.25-2.8,6.15-2.28,10.02.82,3.91,3.07,6.48,6.37,8.65,5.03,2.23,9.42,2.38,14.57.46,1.91-1.02,3.21-2.09,4.1-4.1-.28-.2-.56-.39-.83-.58-.37-.26-.74-.51-1.1-.76-1.29-.89-2.39-1.69-3.98-1.85q-.88.92-1.88,1.65c-1.68.8-3.14.88-4.95.63q-2.7-1.14-4.1-4.1h18.21v-6.37ZM101.48,106.47h-10.47c.5-2.5.75-2.74,2.73-4.1,1.4-.7,2.62-.91,4.1-.46,1.8.55,2.5,1.43,3.42,3.14.21.4.22.95.22,1.41Z"/>
    </g>
  </g>
</svg>