<?xml version="1.0" encoding="UTF-8"?>
<svg id="Layer_1" xmlns="http://www.w3.org/2000/svg" version="1.1" xmlns:xlink="http://www.w3.org/1999/xlink" viewBox="0 0 244 169">
  <!-- Generator: Adobe Illustrator 29.8.1, SVG Export Plug-In . SVG Version: 2.1.1 Build 2)  -->
  <defs>
    <style>
      .st0 {
        fill: url(#linear-gradient2);
      }

      .st1 {
        fill: #fff;
      }

      .st2 {
        fill: url(#linear-gradient1);
      }

      .st3 {
        fill: #fafcfe;
      }

      .st4 {
        fill: none;
      }

      .st5 {
        fill: url(#linear-gradient4);
      }

      .st6 {
        fill: url(#linear-gradient3);
      }

      .st7 {
        font-family: FranklinGothic-Medium, 'Franklin Gothic Medium';
        font-size: 40.52px;
        font-weight: 500;
        letter-spacing: .07em;
      }

      .st8 {
        fill: #fbfcfe;
      }

      .st9 {
        fill: url(#linear-gradient);
      }

      .st10 {
        fill: #f9fbfe;
      }

      .st11 {
        clip-path: url(#clippath);
      }
    </style>
    <linearGradient id="linear-gradient" x1="147.04" y1="55.69" x2="147.04" y2="8.66" gradientTransform="translate(0 170) scale(1 -1)" gradientUnits="userSpaceOnUse">
      <stop offset="0" stop-color="#1e7bf3"/>
      <stop offset=".99" stop-color="#a9bcff"/>
    </linearGradient>
    <linearGradient id="linear-gradient1" x1="172.62" x2="172.62" xlink:href="#linear-gradient"/>
    <linearGradient id="linear-gradient2" x1="197.09" x2="197.09" xlink:href="#linear-gradient"/>
    <linearGradient id="linear-gradient3" x1="217.82" x2="217.82" xlink:href="#linear-gradient"/>
    <clipPath id="clippath">
      <rect class="st4" x="78" y="16" width="88" height="88"/>
    </clipPath>
    <linearGradient id="linear-gradient4" x1="87.9" y1="70.98" x2="162.92" y2="156.71" xlink:href="#linear-gradient"/>
  </defs>
  <path class="st9" d="M148.98,153c-2.64,0-5.05-.62-7.23-1.87-2.15-1.27-3.85-2.98-5.09-5.13-1.24-2.15-1.86-4.51-1.86-7.07s.6-4.96,1.79-7.11c1.22-2.18,2.9-3.89,5.05-5.13,2.15-1.27,4.6-1.9,7.34-1.9,2.2,0,4.09.35,5.67,1.05,1.6.67,3.03,1.75,4.27,3.23l-3.85,3.34c-1.63-1.71-3.67-2.56-6.1-2.56-1.71,0-3.21.41-4.51,1.24-1.3.8-2.29,1.9-2.99,3.3-.7,1.37-1.05,2.89-1.05,4.55s.35,3.17,1.05,4.55c.73,1.37,1.74,2.46,3.03,3.26,1.32.8,2.85,1.21,4.58,1.21,2.54,0,4.61-.88,6.22-2.64l3.96,3.38c-1.09,1.32-2.51,2.37-4.27,3.15-1.74.78-3.74,1.17-6.02,1.17Z"/>
  <path class="st2" d="M163.1,124.14h5.24v10.96c1.09-2.18,3.12-3.26,6.1-3.26,1.45,0,2.76.35,3.92,1.05,1.17.67,2.09,1.65,2.76,2.91.67,1.24,1.01,2.69,1.01,4.35v12.35h-5.24v-11.07c0-1.68-.39-2.94-1.16-3.77-.78-.83-1.84-1.24-3.19-1.24-1.19,0-2.19.43-2.99,1.28-.8.83-1.2,2.07-1.2,3.73v11.07h-5.24v-28.36Z"/>
  <path class="st0" d="M196.27,153c-1.81,0-3.48-.47-5.01-1.4-1.53-.96-2.75-2.24-3.65-3.85-.88-1.61-1.32-3.37-1.32-5.28s.44-3.68,1.32-5.28c.91-1.63,2.12-2.93,3.65-3.89,1.53-.96,3.2-1.44,5.01-1.44,1.66,0,2.99.31,4,.93,1.04.62,1.84,1.51,2.41,2.68v-3.19h5.21v20.2h-5.09v-3.3c-.6,1.22-1.41,2.16-2.45,2.84-1.01.65-2.37.97-4.08.97ZM191.54,142.43c0,1.04.23,2.01.7,2.91.49.88,1.15,1.59,1.98,2.14.85.52,1.83.78,2.91.78s2.1-.26,2.95-.78c.88-.52,1.55-1.22,2.02-2.1.47-.88.7-1.85.7-2.91s-.23-2.03-.7-2.91c-.47-.91-1.14-1.62-2.02-2.14-.85-.54-1.84-.82-2.95-.82s-2.06.27-2.91.82c-.85.52-1.51,1.22-1.98,2.1s-.7,1.85-.7,2.91Z"/>
  <path class="st6" d="M220.66,152.5c-2.05,0-3.59-.5-4.62-1.51-1.03-1.01-1.55-2.59-1.55-4.74v-9.48h-2.84v-4.47h2.84v-4.08l5.24-.54v4.62h4.27v4.47h-4.27v9.21c0,1.24.54,1.87,1.63,1.87h2.18v4.66h-2.88Z"/>
  <g class="st11">
    <g>
      <rect class="st1" x="78" y="16" width="88.05" height="88.05" rx="21.65" ry="21.65"/>
      <rect class="st5" x="78" y="16" width="88.05" height="88.05" rx="21.65" ry="21.65"/>
      <path class="st3" d="M121.9,29.84q.24,0,.48,0c2.58.01,5.04.21,7.54.87.14.04.28.07.43.11,5.18,1.38,9.66,4.1,13.54,7.76q.2.18.4.37c4.54,4.34,7.73,11.02,7.91,17.31.01.68.01,1.36,0,2.04q0,.21,0,.43c0,2.12-.1,4.15-.65,6.21-.03.13-.07.26-.1.39-1.1,4.09-3.02,7.81-5.8,11.02-.14.16-.27.32-.41.49-4.46,5.11-10.61,8.53-17.29,9.74-.18.03-.36.07-.55.1-1.66.29-3.28.36-4.96.35-.44,0-.88,0-1.32,0-1.78,0-3.47-.16-5.22-.52-.25-.05-.49-.1-.74-.15-.2-.06-.41-.11-.62-.17-1.21-.04-2.25.41-3.38.82-.25.09-.51.18-.76.27-.81.28-1.61.57-2.41.85-.93.33-1.86.66-2.8.99-.37.13-.74.26-1.11.4q-2.18.76-3.27.39c-.45-.67-.43-.79-.35-1.56.02-.21.04-.42.07-.64.19-1.58.39-3.16.59-4.74.05-.36.09-.72.14-1.08.11-.87.23-1.74.34-2.61-.12-.06-.24-.12-.37-.17-3.73-1.94-6.67-7.79-7.96-11.6-1.6-5.2-2.04-11.08-.52-16.36.04-.13.07-.26.11-.39,1.23-4.35,3.56-8.09,6.58-11.41.17-.18.33-.37.51-.56,3.55-3.71,8.1-6.16,12.94-7.75.14-.05.27-.09.41-.14,2.8-.88,5.69-1.1,8.61-1.08ZM102.19,38.79q-.41.38-1.02.85c-4.28,3.83-6.73,9.52-7.66,15.07-.04.18-.07.35-.11.53-.76,5.61.6,11.08,3.26,15.99.1.18.19.36.29.55,1,1.75,2.19,3.4,3.69,4.75.14.13.29.26.44.4.29.26.58.51.87.75.63.57.98.96,1.06,1.83-.05.73-.14,1.44-.26,2.16-.03.27-.07.53-.1.8-.1.83-.2,1.65-.31,2.48-.06.42-.11.85-.16,1.27-.05.38-.1.76-.15,1.14q-.08.6-.07,1.19c.69-.12,1.33-.3,1.99-.52.2-.07.39-.13.59-.2.21-.07.42-.14.63-.22.22-.07.43-.15.65-.22.46-.16.91-.31,1.37-.47.7-.24,1.4-.48,2.1-.71.44-.15.88-.3,1.33-.45.21-.07.42-.14.64-.22.19-.07.39-.13.59-.2.17-.06.34-.12.52-.18q.42-.14.81-.35c.99-.05,1.85.07,2.82.28,6.49,1.43,13.74.46,19.61-2.64.13-.07.25-.13.39-.2,4.29-2.22,8.06-5.52,10.63-9.64.08-.12.15-.25.23-.37,3.48-5.67,4.94-12.76,3.4-19.29-.03-.13-.06-.26-.1-.4-.03-.13-.06-.27-.1-.41-1.01-4.15-3.06-7.75-5.81-11-.13-.15-.26-.31-.39-.47-3.95-4.56-9.38-7.3-15.15-8.78-.14-.04-.28-.07-.42-.11-2.08-.51-4.19-.54-6.32-.54-.13,0-.27,0-.4,0-7.18-.02-14.15,2.64-19.4,7.55Z"/>
      <path class="st1" d="M139.75,56.68h3.34v10.43h-3.34v-10.43Z"/>
      <path class="st8" d="M134.83,50.58c-.07,2.27-.13,4.48-.2,6.69-.75-.5-1.48-.78-2.36-.98-1.52-.13-2.65.03-3.93.87-1.41,1.1-2.01,2.6-2.23,4.34-.08,1.54.28,2.95,1.27,4.15,1.28,1.25,2.47,1.76,4.24,1.91,1.36-.13,2.16-.48,3.15-1.39.09-.08.17-.16.25-.24.07.4.13.79.2,1.18h3.15v-16.52h-3.54ZM135.09,62.95c-.32.63-.6.97-1.18,1.39-1.12.36-2.02.41-3.09-.12-.67-.59-1.05-.99-1.17-1.9-.05-1.12.07-1.82.85-2.69.92-.58,1.94-.68,2.95-.39.81.23,1.08.64,1.55,1.34.3.84.4,1.52.09,2.38Z"/>
      <path class="st10" d="M109.45,50.58c-.07,2.34-.13,4.61-.2,6.89q-.59-.59-.96-.78c-1.5-.52-2.99-.69-4.5-.11-1.44.73-2.34,1.99-2.87,3.49-.42,1.79-.28,3.67.69,5.25.87,1.15,2.07,1.79,3.46,2.11,1.53.2,2.73-.05,3.99-.95.13-.12.26-.24.38-.36.07.33.13.66.2.98h3.34v-16.52h-3.54ZM109.41,63.41c-.57.69-1,1.07-1.92,1.18-1.16.04-1.83-.11-2.75-.83-.58-.93-.67-1.68-.51-2.74.21-.75.6-1.21,1.26-1.61.99-.41,2.14-.42,3.07.06.66.34.83.64,1.09,1.34.14.92.22,1.77-.24,2.6Z"/>
      <path class="st8" d="M142.11,51.36c2.5,1.07,1.13,4.37-1.38,3.74-2.59-.83-1.11-4.43,1.38-3.74Z"/>
      <path class="st3" d="M125.19,60.22c-.38-1.14-.81-2.2-1.81-2.93-2.89-1.75-6.44-1.3-8.62,1.36-.94,1.4-1.21,2.66-.98,4.33.35,1.69,1.33,2.8,2.75,3.74,2.17.97,4.07,1.03,6.29.2.83-.44,1.39-.9,1.77-1.77-.12-.09-.24-.17-.36-.25-.16-.11-.32-.22-.48-.33-.56-.39-1.03-.73-1.72-.8q-.38.4-.81.71c-.73.35-1.36.38-2.14.27q-1.17-.49-1.77-1.77h7.87v-2.75ZM121.85,60.61h-4.52c.22-1.08.32-1.19,1.18-1.77.6-.3,1.13-.39,1.77-.2.78.24,1.08.62,1.48,1.36.09.17.09.41.09.61Z"/>
    </g>
  </g>
  <text class="st7" transform="translate(25.33 151.58) scale(1.17 1)"><tspan x="0" y="0">Dedi</tspan></text>
</svg>