<svg width="200" height="213" viewBox="0 0 200 213" fill="none" xmlns="http://www.w3.org/2000/svg">
<path d="M69.7266 131.555H59.2144V126.677H59.061C58.6011 127.335 58.0098 128.014 57.2762 128.694C56.5425 129.385 55.6774 129.999 54.6919 130.558C53.7064 131.117 52.6114 131.577 51.4178 131.928C50.2242 132.279 48.9978 132.465 47.7276 132.465C44.99 132.465 42.4934 131.994 40.2595 131.051C38.0257 130.108 36.1094 128.793 34.5107 127.083C32.9119 125.383 31.6746 123.355 30.8204 121.02C29.9554 118.685 29.5283 116.12 29.5283 113.324C29.5283 110.737 29.9225 108.26 30.7109 105.892C31.4994 103.524 32.6163 101.43 34.0617 99.599C35.5071 97.7682 37.2701 96.3101 39.3507 95.2138C41.4312 94.1176 43.7964 93.5694 46.4355 93.5694C48.8226 93.5694 51.0455 93.9422 53.1041 94.6767C55.1628 95.4112 56.8491 96.6719 58.1631 98.4479H58.3164V73.9132H69.7375V131.555H69.7266ZM59.2144 113.028C59.2144 110.233 58.415 107.974 56.8163 106.242C55.2175 104.51 52.9727 103.655 50.0709 103.655C47.1691 103.655 44.9353 104.521 43.3365 106.242C41.7378 107.974 40.9384 110.233 40.9384 113.028C40.9384 115.824 41.7378 118.082 43.3365 119.814C44.9353 121.546 47.1801 122.401 50.0709 122.401C52.9618 122.401 55.2066 121.535 56.8163 119.814C58.415 118.082 59.2144 115.824 59.2144 113.028Z" fill="white"/>
<path d="M108.849 125.153C107.021 127.489 104.71 129.297 101.918 130.569C99.1256 131.841 96.2348 132.477 93.2344 132.477C90.2341 132.477 87.7155 132.016 85.197 131.106C82.6784 130.196 80.4993 128.881 78.6487 127.182C76.7982 125.482 75.3308 123.432 74.2687 121.042C73.2065 118.653 72.6699 115.989 72.6699 113.04C72.6699 110.091 73.2065 107.427 74.2687 105.037C75.3308 102.647 76.7982 100.608 78.6487 98.8977C80.4993 97.1984 82.6894 95.8829 85.197 94.973C87.7155 94.0631 90.3874 93.6027 93.2344 93.6027C95.8734 93.6027 98.2715 94.0631 100.429 94.973C102.586 95.8829 104.415 97.1984 105.915 98.8977C107.415 100.597 108.565 102.647 109.375 105.037C110.185 107.427 110.591 110.091 110.591 113.04V116.624H84.091C84.5509 118.806 85.5364 120.549 87.0585 121.843C88.5806 123.136 90.464 123.783 92.6979 123.783C94.5704 123.783 96.1581 123.367 97.4612 122.522C98.7533 121.689 99.8812 120.604 100.845 119.277L108.838 125.153H108.849ZM99.1804 108.83C99.2351 106.9 98.6 105.245 97.2751 103.875C95.9501 102.504 94.2528 101.814 92.1723 101.814C90.902 101.814 89.7851 102.022 88.8215 102.428C87.8579 102.833 87.0366 103.36 86.3467 103.995C85.6569 104.631 85.1313 105.366 84.748 106.21C84.3647 107.043 84.1457 107.92 84.1019 108.841H99.1804V108.83Z" fill="white"/>
<path d="M153.996 131.555H143.484V126.677H143.331C142.871 127.335 142.279 128.014 141.546 128.694C140.812 129.385 139.947 129.999 138.961 130.558C137.976 131.117 136.881 131.577 135.687 131.928C134.494 132.279 133.267 132.465 131.997 132.465C129.26 132.465 126.763 131.994 124.529 131.051C122.295 130.108 120.379 128.793 118.78 127.082C117.181 125.383 115.944 123.355 115.09 121.02C114.225 118.685 113.798 116.12 113.798 113.324C113.798 110.737 114.192 108.259 114.98 105.891C115.769 103.523 116.886 101.43 118.331 99.5988C119.777 97.768 121.54 96.31 123.62 95.2137C125.701 94.1174 128.066 93.5693 130.705 93.5693C133.092 93.5693 135.315 93.942 137.374 94.6765C139.432 95.4111 141.119 96.6718 142.433 98.4477H142.586V73.9131H154.007V131.555H153.996ZM143.484 113.028C143.484 110.233 142.685 107.974 141.086 106.242C139.487 104.51 137.242 103.655 134.34 103.655C131.439 103.655 129.205 104.521 127.606 106.242C126.007 107.974 125.208 110.233 125.208 113.028C125.208 115.824 126.007 118.082 127.606 119.814C129.205 121.546 131.45 122.401 134.34 122.401C137.231 122.401 139.476 121.535 141.086 119.814C142.685 118.082 143.484 115.824 143.484 113.028Z" fill="white"/>
<path d="M157.458 82.8371C157.458 81.0063 158.104 79.4496 159.396 78.145C160.688 76.8404 162.254 76.2046 164.083 76.2046C165.912 76.2046 167.467 76.8514 168.77 78.145C170.062 79.4386 170.708 81.0063 170.708 82.8371C170.708 84.6678 170.062 86.2355 168.77 87.5291C167.477 88.8227 165.912 89.4695 164.083 89.4695C162.254 89.4695 160.688 88.8227 159.396 87.5291C158.104 86.2355 157.458 84.6678 157.458 82.8371ZM158.367 94.5014H169.788V131.556H158.367V94.5014Z" fill="white"/>
<path fill-rule="evenodd" clip-rule="evenodd" d="M100 5.84542C47.5133 5.84542 4.96278 48.4539 4.96278 101.014C4.96278 129.266 17.2522 154.639 36.7775 172.071L37.7475 172.937L33.6029 206.65L73.0072 192.294L73.7819 192.516C82.1069 194.904 90.9018 196.184 100 196.184C152.487 196.184 195.037 153.576 195.037 101.014C195.037 48.4539 152.487 5.84542 100 5.84542ZM32.3231 207.117C32.3234 207.117 32.3236 207.116 32.3239 207.116L32.3231 207.117ZM0 101.014C0 45.711 44.7714 0.876953 100 0.876953C155.229 0.876953 200 45.711 200 101.014C200 156.319 155.229 201.152 100 201.152C90.7181 201.152 81.7284 199.885 73.195 197.512L34.0218 211.785C34.0216 211.785 34.0213 211.785 34.0211 211.785C31.1209 212.842 28.1347 210.457 28.5111 207.395L32.5056 174.903C12.5317 156.599 0 130.27 0 101.014Z" fill="white"/>
</svg>
