<?xml version="1.0" encoding="UTF-8"?>
<svg version="1.1" xmlns="http://www.w3.org/2000/svg" width="512" height="512">
<path d="M0 0 C1.41095348 -0.00274901 2.82190489 -0.00680824 4.23285133 -0.01204365 C8.06381297 -0.02251599 11.89453737 -0.01457708 15.72548831 -0.00329316 C19.87478686 0.00562006 24.02405672 -0.00291496 28.1733551 -0.00915527 C36.28274137 -0.0186034 44.39203814 -0.01207894 52.50141772 0.00010767 C61.956898 0.01378376 71.41235738 0.01208493 80.86784504 0.00997434 C97.74344269 0.0067904 114.61899802 0.01841887 131.49458313 0.03804016 C147.84941394 0.05705082 164.20419518 0.06412458 180.55903625 0.05854797 C198.39670149 0.05248369 216.23434499 0.05267845 234.07200843 0.06403381 C235.9755855 0.06524102 237.87916257 0.06644701 239.78273964 0.06765175 C241.187412 0.06855706 241.187412 0.06855706 242.62046158 0.06948065 C249.2033641 0.07335156 255.7862585 0.07296943 262.36916161 0.0710659 C270.39473732 0.06893904 278.42026974 0.07420545 286.44583329 0.08867946 C290.53645661 0.09589889 294.62701704 0.10002146 298.71764565 0.0954361 C302.46853196 0.09133395 306.21928891 0.09659753 309.97015569 0.10906217 C311.95582611 0.11333675 313.94151027 0.10792832 315.92717665 0.10207289 C331.30569571 0.17666083 344.69377678 1.95284981 356.07344055 12.9757843 C367.207979 24.80382342 368.94951029 39.6159882 368.8324585 55.34631348 C368.83636422 56.77804387 368.84201474 58.20977035 368.8492294 59.6414879 C368.8638193 63.52532689 368.85390262 67.40875363 368.83949268 71.29257858 C368.82829201 75.50051169 368.84035514 79.7083912 368.84933472 83.9163208 C368.86320672 92.1388921 368.85575642 100.36130893 368.84065913 108.58387276 C368.82372854 118.17277802 368.82701806 127.76164557 368.83075321 137.35056118 C368.83662049 154.46516857 368.82250354 171.5797022 368.79780579 188.69429016 C368.77387709 205.27797712 368.76680739 221.8615656 368.77729797 238.44526672 C368.78872128 256.5356579 368.79062066 274.62600361 368.77619988 292.71639425 C368.77467414 294.64721604 368.77315379 296.57803783 368.77163887 298.50885963 C368.77088106 299.45869273 368.77012324 300.40852582 368.76934246 301.38714173 C368.76461144 308.06176337 368.76644259 314.73636463 368.77070427 321.41098595 C368.77564363 329.5492496 368.76958979 337.68742037 368.74980997 345.82566281 C368.73997598 349.9731498 368.73479058 354.12049572 368.74270248 358.26799011 C368.74981042 362.07199152 368.74283671 365.87570952 368.72509886 369.67967383 C368.71920186 371.69139812 368.72782699 373.70314926 368.73714536 375.71486062 C368.63833123 390.01340507 365.9120048 402.92424359 356.12031555 413.74531555 C347.05005687 422.00360785 335.26715643 425.49126868 323.20725822 425.50564957 C321.38733197 425.51141128 321.38733197 425.51141128 319.53063953 425.5172894 C318.19276414 425.51650926 316.85488881 425.5156305 315.51701355 425.5146637 C314.08908099 425.51724902 312.66114915 425.52026264 311.23321831 425.5236671 C307.31359201 425.53172078 303.39398404 425.53352576 299.47435045 425.53426456 C295.24514305 425.53611797 291.01594509 425.54366677 286.78674316 425.55039978 C277.54072115 425.56397218 268.29470347 425.57000616 259.04867315 425.57441044 C253.27314633 425.57717479 247.49762118 425.58141251 241.72209549 425.58591461 C225.72495313 425.598106 209.72781211 425.60840548 193.73066521 425.6117897 C192.70713357 425.61200927 191.68360194 425.61222884 190.6290542 425.61245506 C189.60310136 425.61267333 188.57714852 425.61289161 187.5201062 425.6131165 C185.44120463 425.61355997 183.36230306 425.61400653 181.28340149 425.61445618 C179.7365976 425.61478832 179.7365976 425.61478832 178.15854515 425.61512718 C161.45427559 425.61907409 144.75004968 425.63652545 128.04579698 425.6598157 C110.88743905 425.68354557 93.72910302 425.6959923 76.57072842 425.69715762 C66.94033055 425.69807348 57.30998957 425.70380324 47.67960739 425.72197723 C39.47814164 425.73740032 31.27675035 425.74248567 23.07527284 425.73423913 C18.89353816 425.73034041 14.71195331 425.73122408 10.5302372 425.74529648 C6.69568509 425.75808215 2.86139471 425.75679728 -0.97315727 425.74470577 C-3.00400638 425.74183952 -5.0348602 425.75364907 -7.06567299 425.76612782 C-20.9087982 425.6918974 -33.95175157 422.91508905 -44.41874695 413.3742218 C-55.79120355 401.25702026 -56.975813 385.97686141 -56.92944336 370.16871643 C-56.93246961 368.75922944 -56.93636145 367.34974409 -56.94103593 365.9402616 C-56.95126388 362.09470671 -56.94914747 358.24924559 -56.94485533 354.40368319 C-56.94237857 350.24539481 -56.95141409 346.08712846 -56.95889282 341.92884827 C-56.97161599 333.79253048 -56.97343645 325.65624573 -56.97109256 317.51991966 C-56.96930639 310.90274392 -56.97106544 304.28557817 -56.975317 297.66840363 C-56.97591219 296.72505131 -56.97650738 295.781699 -56.9771206 294.80976026 C-56.97833241 292.8930491 -56.97954655 290.97633794 -56.98076298 289.05962679 C-56.99162957 271.10028102 -56.98948034 253.14095404 -56.98337813 235.18160722 C-56.97821107 218.77390563 -56.98946046 202.36626345 -57.00847635 185.95857361 C-57.02787772 169.08819219 -57.03610664 152.21783884 -57.0323531 135.3474462 C-57.03044438 125.88526437 -57.0328964 116.42313308 -57.04706764 106.96096039 C-57.05901182 98.904623 -57.06035247 90.84836726 -57.04827747 82.7920287 C-57.04240974 78.68685073 -57.04123057 74.58182187 -57.05327988 70.47665405 C-57.06421009 66.70875207 -57.06095168 62.94112239 -57.04701819 59.17323276 C-57.04315892 57.18560411 -57.05385979 55.19796302 -57.06531507 53.21036363 C-56.97738687 38.39323298 -54.80082798 23.92068509 -44.48124695 12.5617218 C-32.01847706 1.23933609 -16.09334487 -0.09308465 0 0 Z " fill="#1C7AF2" transform="translate(100.66874694824219,45.62577819824219)"/>
<path d="M0 0 C1.20141129 0.00406357 1.20141129 0.00406357 2.42709351 0.00820923 C15.52854575 0.07510569 28.03884644 1.0563166 40.75 4.4375 C41.4733252 4.62473633 42.19665039 4.81197266 42.94189453 5.00488281 C69.27032816 12.01208257 92.03609888 25.8471891 111.75 44.4375 C112.76126953 45.36949219 112.76126953 45.36949219 113.79296875 46.3203125 C136.89664976 68.36334548 153.07209849 102.3284994 154.01396179 134.29669189 C154.07674793 137.76077961 154.08056114 141.22297796 154.0625 144.6875 C154.05976578 145.77766922 154.05976578 145.77766922 154.05697632 146.88986206 C154.01142278 157.68041225 153.56106458 167.96092197 150.75 178.4375 C150.57839355 179.08847656 150.40678711 179.73945313 150.22998047 180.41015625 C144.62591376 201.20379786 134.88163898 220.13604243 120.75 236.4375 C120.05390625 237.25476563 119.3578125 238.07203125 118.640625 238.9140625 C95.94680586 264.90733762 64.68041516 282.28532213 30.75 288.4375 C29.8312207 288.61337646 28.91244141 288.78925293 27.96582031 288.97045898 C19.52464789 290.44759848 11.29180919 290.77823817 2.74951172 290.75317383 C0.51609974 290.75002272 -1.71596991 290.77354514 -3.94921875 290.79882812 C-13.02272935 290.83756655 -21.57486318 289.9625965 -30.47167969 288.18041992 C-31.71852539 287.93525635 -32.96537109 287.69009277 -34.25 287.4375 C-35.29124023 287.15173096 -36.33248047 286.86596191 -37.40527344 286.5715332 C-43.57236495 286.35653871 -48.84619651 288.67114963 -54.59375 290.75 C-55.88915164 291.2039995 -57.18518496 291.65620026 -58.48181152 292.10668945 C-62.57726684 293.53335855 -66.66413745 294.98362301 -70.75 296.4375 C-75.48804508 298.12344382 -80.22916388 299.79931494 -84.97969055 301.44979858 C-86.8711927 302.11271347 -88.75618546 302.79410887 -90.64099121 303.47583008 C-101.71379696 307.33584814 -101.71379696 307.33584814 -107.25 305.4375 C-109.52211273 302.0293309 -109.43966478 301.41827278 -109.03515625 297.515625 C-108.92574707 296.44634766 -108.81633789 295.37707031 -108.70361328 294.27539062 C-107.75371571 286.2385823 -106.73710781 278.21185029 -105.6875 270.1875 C-105.45092328 268.36331347 -105.21459327 266.53909493 -104.97851562 264.71484375 C-104.40518544 260.28868854 -103.82852524 255.86297906 -103.25 251.4375 C-103.86625244 251.14431885 -104.48250488 250.8511377 -105.11743164 250.54907227 C-124.06606842 240.67235295 -139.03496641 210.95865374 -145.58984375 191.58349609 C-153.72338288 165.143478 -155.96421077 135.26926187 -148.25 108.4375 C-148.06808105 107.77733887 -147.88616211 107.11717773 -147.69873047 106.43701172 C-141.4707271 84.31340727 -129.62134499 65.30541317 -114.25 48.4375 C-113.39921875 47.50292969 -112.5484375 46.56835938 -111.671875 45.60546875 C-93.64870932 26.74589867 -70.47218304 14.26823625 -45.875 6.1875 C-45.18172607 5.95329346 -44.48845215 5.71908691 -43.77416992 5.4777832 C-29.5256347 1.01220676 -14.84163062 -0.11890374 0 0 Z " fill="#1C7AF3" transform="translate(255.25,102.5625)"/>
<path d="M0 0 C1.41095348 -0.00274901 2.82190489 -0.00680824 4.23285133 -0.01204365 C8.06381297 -0.02251599 11.89453737 -0.01457708 15.72548831 -0.00329316 C19.87478686 0.00562006 24.02405672 -0.00291496 28.1733551 -0.00915527 C36.28274137 -0.0186034 44.39203814 -0.01207894 52.50141772 0.00010767 C61.956898 0.01378376 71.41235738 0.01208493 80.86784504 0.00997434 C97.74344269 0.0067904 114.61899802 0.01841887 131.49458313 0.03804016 C147.84941394 0.05705082 164.20419518 0.06412458 180.55903625 0.05854797 C198.39670149 0.05248369 216.23434499 0.05267845 234.07200843 0.06403381 C235.9755855 0.06524102 237.87916257 0.06644701 239.78273964 0.06765175 C241.187412 0.06855706 241.187412 0.06855706 242.62046158 0.06948065 C249.2033641 0.07335156 255.7862585 0.07296943 262.36916161 0.0710659 C270.39473732 0.06893904 278.42026974 0.07420545 286.44583329 0.08867946 C290.53645661 0.09589889 294.62701704 0.10002146 298.71764565 0.0954361 C302.46853196 0.09133395 306.21928891 0.09659753 309.97015569 0.10906217 C311.95582611 0.11333675 313.94151027 0.10792832 315.92717665 0.10207289 C331.30569571 0.17666083 344.69377678 1.95284981 356.07344055 12.9757843 C367.207979 24.80382342 368.94951029 39.6159882 368.8324585 55.34631348 C368.83636422 56.77804387 368.84201474 58.20977035 368.8492294 59.6414879 C368.8638193 63.52532689 368.85390262 67.40875363 368.83949268 71.29257858 C368.82829201 75.50051169 368.84035514 79.7083912 368.84933472 83.9163208 C368.86320672 92.1388921 368.85575642 100.36130893 368.84065913 108.58387276 C368.82372854 118.17277802 368.82701806 127.76164557 368.83075321 137.35056118 C368.83662049 154.46516857 368.82250354 171.5797022 368.79780579 188.69429016 C368.77387709 205.27797712 368.76680739 221.8615656 368.77729797 238.44526672 C368.78872128 256.5356579 368.79062066 274.62600361 368.77619988 292.71639425 C368.77467414 294.64721604 368.77315379 296.57803783 368.77163887 298.50885963 C368.77088106 299.45869273 368.77012324 300.40852582 368.76934246 301.38714173 C368.76461144 308.06176337 368.76644259 314.73636463 368.77070427 321.41098595 C368.77564363 329.5492496 368.76958979 337.68742037 368.74980997 345.82566281 C368.73997598 349.9731498 368.73479058 354.12049572 368.74270248 358.26799011 C368.74981042 362.07199152 368.74283671 365.87570952 368.72509886 369.67967383 C368.71920186 371.69139812 368.72782699 373.70314926 368.73714536 375.71486062 C368.63833123 390.01340507 365.9120048 402.92424359 356.12031555 413.74531555 C347.05005687 422.00360785 335.26715643 425.49126868 323.20725822 425.50564957 C321.38733197 425.51141128 321.38733197 425.51141128 319.53063953 425.5172894 C318.19276414 425.51650926 316.85488881 425.5156305 315.51701355 425.5146637 C314.08908099 425.51724902 312.66114915 425.52026264 311.23321831 425.5236671 C307.31359201 425.53172078 303.39398404 425.53352576 299.47435045 425.53426456 C295.24514305 425.53611797 291.01594509 425.54366677 286.78674316 425.55039978 C277.54072115 425.56397218 268.29470347 425.57000616 259.04867315 425.57441044 C253.27314633 425.57717479 247.49762118 425.58141251 241.72209549 425.58591461 C225.72495313 425.598106 209.72781211 425.60840548 193.73066521 425.6117897 C192.70713357 425.61200927 191.68360194 425.61222884 190.6290542 425.61245506 C189.60310136 425.61267333 188.57714852 425.61289161 187.5201062 425.6131165 C185.44120463 425.61355997 183.36230306 425.61400653 181.28340149 425.61445618 C179.7365976 425.61478832 179.7365976 425.61478832 178.15854515 425.61512718 C161.45427559 425.61907409 144.75004968 425.63652545 128.04579698 425.6598157 C110.88743905 425.68354557 93.72910302 425.6959923 76.57072842 425.69715762 C66.94033055 425.69807348 57.30998957 425.70380324 47.67960739 425.72197723 C39.47814164 425.73740032 31.27675035 425.74248567 23.07527284 425.73423913 C18.89353816 425.73034041 14.71195331 425.73122408 10.5302372 425.74529648 C6.69568509 425.75808215 2.86139471 425.75679728 -0.97315727 425.74470577 C-3.00400638 425.74183952 -5.0348602 425.75364907 -7.06567299 425.76612782 C-20.9087982 425.6918974 -33.95175157 422.91508905 -44.41874695 413.3742218 C-55.79120355 401.25702026 -56.975813 385.97686141 -56.92944336 370.16871643 C-56.93246961 368.75922944 -56.93636145 367.34974409 -56.94103593 365.9402616 C-56.95126388 362.09470671 -56.94914747 358.24924559 -56.94485533 354.40368319 C-56.94237857 350.24539481 -56.95141409 346.08712846 -56.95889282 341.92884827 C-56.97161599 333.79253048 -56.97343645 325.65624573 -56.97109256 317.51991966 C-56.96930639 310.90274392 -56.97106544 304.28557817 -56.975317 297.66840363 C-56.97591219 296.72505131 -56.97650738 295.781699 -56.9771206 294.80976026 C-56.97833241 292.8930491 -56.97954655 290.97633794 -56.98076298 289.05962679 C-56.99162957 271.10028102 -56.98948034 253.14095404 -56.98337813 235.18160722 C-56.97821107 218.77390563 -56.98946046 202.36626345 -57.00847635 185.95857361 C-57.02787772 169.08819219 -57.03610664 152.21783884 -57.0323531 135.3474462 C-57.03044438 125.88526437 -57.0328964 116.42313308 -57.04706764 106.96096039 C-57.05901182 98.904623 -57.06035247 90.84836726 -57.04827747 82.7920287 C-57.04240974 78.68685073 -57.04123057 74.58182187 -57.05327988 70.47665405 C-57.06421009 66.70875207 -57.06095168 62.94112239 -57.04701819 59.17323276 C-57.04315892 57.18560411 -57.05385979 55.19796302 -57.06531507 53.21036363 C-56.97738687 38.39323298 -54.80082798 23.92068509 -44.48124695 12.5617218 C-32.01847706 1.23933609 -16.09334487 -0.09308465 0 0 Z M-40.91874695 18.6867218 C-45.36225859 25.51068611 -47.78922385 32.18129942 -47.80296803 40.31738377 C-47.80742587 41.54123612 -47.81188371 42.76508847 -47.81647664 44.02602726 C-47.81638735 45.38619714 -47.8161975 46.74636701 -47.81591797 48.10653687 C-47.81921762 49.5499554 -47.82294341 50.99337301 -47.82705945 52.43678945 C-47.83707613 56.40846911 -47.84079571 60.38013366 -47.84344876 64.35182416 C-47.84735282 68.6335377 -47.85693113 72.91523929 -47.86566162 77.19694519 C-47.8854237 87.54024618 -47.89549216 97.88354815 -47.90438941 108.22686329 C-47.90877295 113.09833999 -47.91413961 117.96981559 -47.91937828 122.84129143 C-47.93639071 139.03651358 -47.95088455 155.23173505 -47.95812702 171.42696476 C-47.9600369 175.62968001 -47.96195724 179.83239525 -47.96391296 184.03511047 C-47.9643967 185.07966884 -47.96488044 186.1242272 -47.96537884 187.20043885 C-47.97367788 204.1189202 -47.99901262 221.03733082 -48.03149364 237.95578129 C-48.06457307 255.3276431 -48.08257661 272.69946897 -48.08577126 290.07136244 C-48.0879356 299.82418067 -48.096673 309.57689578 -48.12223244 319.3296833 C-48.14395154 327.63627526 -48.15198391 335.94273903 -48.14226566 344.24935616 C-48.13772439 348.48567935 -48.13959694 352.72173814 -48.1590271 356.95802498 C-48.1766843 360.84139566 -48.17564063 364.72430955 -48.16012981 368.60768526 C-48.15775758 370.00748854 -48.16205725 371.40732367 -48.17395846 372.80707837 C-48.26279366 383.95177662 -46.63227554 393.73709826 -39.43437195 402.58906555 C-32.5016869 409.59843959 -25.0642816 412.43266406 -15.34806156 412.62590408 C-12.75002521 412.63690539 -10.1533929 412.63717796 -7.55548096 412.62818909 C-6.10733459 412.6304949 -4.65918939 412.63367223 -3.21104664 412.63764358 C0.75967737 412.6459838 4.73030509 412.6418698 8.70102942 412.63567114 C12.98672295 412.63114446 17.27239997 412.63813151 21.55809021 412.64363098 C29.95062434 412.65252453 38.34312269 412.65060307 46.73565822 412.6448057 C53.55703179 412.64028877 60.37839534 412.63967644 67.19976997 412.64185333 C68.17066356 412.6421598 69.14155714 412.64246626 70.14187174 412.64278202 C72.11424215 412.64342147 74.08661257 412.6440699 76.05898298 412.6447272 C94.55460538 412.65043046 113.05020795 412.64387282 131.5458271 412.63312647 C147.41352133 412.62419237 163.2811863 412.62574184 179.14888 412.63496399 C197.57681496 412.64566911 216.00473254 412.64987965 234.43267018 412.64373946 C236.3980869 412.64310237 238.36350363 412.64247363 240.32892036 412.64185333 C241.7794385 412.64139051 241.7794385 412.64139051 243.25926004 412.64091833 C250.07137778 412.63919201 256.88348448 412.64210516 263.69560051 412.64681244 C271.99889143 412.65242402 280.30214454 412.65089903 288.60543113 412.64025095 C292.84132439 412.63499777 297.07715463 412.63293147 301.31304741 412.63954926 C305.19233405 412.64551819 309.07149937 412.64221801 312.95077503 412.63159415 C314.35244731 412.62936412 315.75412988 412.63048751 317.15579551 412.63534573 C328.21227181 412.67072153 338.79315641 412.10102178 347.47187805 404.4992218 C356.66544918 394.96514803 357.92834537 384.54802843 357.83918762 371.72419739 C357.84380464 370.26648256 357.85016291 368.80877239 357.8580966 367.35107183 C357.87470328 363.37227733 357.86658339 359.39386951 357.85415173 355.41507411 C357.84506782 351.11369584 357.85908746 346.81238212 357.87007141 342.51101685 C357.88782569 334.09526332 357.88403046 325.67965277 357.87242085 317.26389372 C357.86337461 310.42213307 357.86216767 303.58041239 357.86651611 296.73864746 C357.86743551 295.2760932 357.86743551 295.2760932 357.86837348 293.78399238 C357.86965243 291.80301129 357.87094928 289.8220302 357.87226385 287.84104913 C357.88366059 269.2804377 357.87057016 250.7199054 357.84906238 232.15930694 C357.83119223 216.2453913 357.83429659 200.33159237 357.85273743 184.41767883 C357.87416014 165.92191793 357.88256204 147.42622631 357.87028837 128.93045473 C357.86901422 126.95690188 357.86775674 124.98334902 357.86651611 123.00979614 C357.86589901 122.03885792 357.86528191 121.06791969 357.86464611 120.06755909 C357.86119741 113.2367542 357.86701118 106.40599338 357.87643433 99.57519531 C357.88767126 91.24679273 357.88457868 82.91854088 357.86331135 74.59015548 C357.85282371 70.3436732 357.84863992 66.09744192 357.86190796 61.85096169 C357.87388534 57.95859364 357.86718213 54.0667077 357.84599775 50.17438298 C357.84155419 48.7714346 357.84374708 47.36844493 357.8535009 45.96552342 C357.93124003 33.84823522 356.05499346 24.16268587 347.4757843 15.2492218 C344.35822175 12.52348405 341.22842653 10.73929345 337.33125305 9.3742218 C336.4226695 9.03404935 335.51408594 8.6938769 334.57796955 8.34339619 C328.61495326 6.67092649 322.37152505 7.09538007 316.23144531 7.11352539 C314.78472392 7.11050301 313.33800413 7.1066131 311.89128715 7.10193282 C307.92442869 7.09165504 303.95766064 7.09383409 299.99079478 7.09811342 C295.70914971 7.10058106 291.42752638 7.09156596 287.14588928 7.08407593 C278.76070864 7.07132762 270.37556001 7.06953543 261.99037131 7.07187619 C255.17378164 7.07365949 248.35720168 7.07190945 241.54061317 7.06765175 C240.57029704 7.06705656 239.5999809 7.06646137 238.60026124 7.06584815 C236.62902229 7.06463639 234.65778334 7.06342225 232.6865444 7.06220577 C214.20040121 7.05132956 195.71427626 7.05349301 177.22813205 7.05959062 C160.32210977 7.06475889 143.41614512 7.05350682 126.51013424 7.0344924 C109.14608834 7.01511273 91.7820697 7.00685828 74.41801292 7.01061565 C64.67144456 7.01252762 54.92492524 7.0100406 45.17836571 6.99590111 C36.88024367 6.98398465 28.58220086 6.98258535 20.28407773 6.99469128 C16.05195684 7.00057831 11.81998086 7.00168429 7.58786964 6.98968887 C3.70966332 6.97882452 -0.16827722 6.9819399 -4.04647114 6.99595056 C-5.44548832 6.99859599 -6.84452636 6.99623577 -8.24352304 6.98821469 C-21.68103556 6.91655131 -31.39028842 8.89358387 -40.91874695 18.6867218 Z " fill="#A2A4A7" transform="translate(100.66874694824219,45.62577819824219)"/>
<path d="M0 0 C1.20141129 0.00406357 1.20141129 0.00406357 2.42709351 0.00820923 C15.52854575 0.07510569 28.03884644 1.0563166 40.75 4.4375 C41.4733252 4.62473633 42.19665039 4.81197266 42.94189453 5.00488281 C69.27032816 12.01208257 92.03609888 25.8471891 111.75 44.4375 C112.76126953 45.36949219 112.76126953 45.36949219 113.79296875 46.3203125 C136.89664976 68.36334548 153.07209849 102.3284994 154.01396179 134.29669189 C154.07674793 137.76077961 154.08056114 141.22297796 154.0625 144.6875 C154.05976578 145.77766922 154.05976578 145.77766922 154.05697632 146.88986206 C154.01142278 157.68041225 153.56106458 167.96092197 150.75 178.4375 C150.57839355 179.08847656 150.40678711 179.73945313 150.22998047 180.41015625 C144.62591376 201.20379786 134.88163898 220.13604243 120.75 236.4375 C120.05390625 237.25476563 119.3578125 238.07203125 118.640625 238.9140625 C95.94680586 264.90733762 64.68041516 282.28532213 30.75 288.4375 C29.8312207 288.61337646 28.91244141 288.78925293 27.96582031 288.97045898 C19.52464789 290.44759848 11.29180919 290.77823817 2.74951172 290.75317383 C0.51609974 290.75002272 -1.71596991 290.77354514 -3.94921875 290.79882812 C-13.02272935 290.83756655 -21.57486318 289.9625965 -30.47167969 288.18041992 C-31.71852539 287.93525635 -32.96537109 287.69009277 -34.25 287.4375 C-35.29124023 287.15173096 -36.33248047 286.86596191 -37.40527344 286.5715332 C-43.57236495 286.35653871 -48.84619651 288.67114963 -54.59375 290.75 C-55.88915164 291.2039995 -57.18518496 291.65620026 -58.48181152 292.10668945 C-62.57726684 293.53335855 -66.66413745 294.98362301 -70.75 296.4375 C-75.48804508 298.12344382 -80.22916388 299.79931494 -84.97969055 301.44979858 C-86.8711927 302.11271347 -88.75618546 302.79410887 -90.64099121 303.47583008 C-101.71379696 307.33584814 -101.71379696 307.33584814 -107.25 305.4375 C-109.52211273 302.0293309 -109.43966478 301.41827278 -109.03515625 297.515625 C-108.92574707 296.44634766 -108.81633789 295.37707031 -108.70361328 294.27539062 C-107.75371571 286.2385823 -106.73710781 278.21185029 -105.6875 270.1875 C-105.45092328 268.36331347 -105.21459327 266.53909493 -104.97851562 264.71484375 C-104.40518544 260.28868854 -103.82852524 255.86297906 -103.25 251.4375 C-103.86625244 251.14431885 -104.48250488 250.8511377 -105.11743164 250.54907227 C-124.06606842 240.67235295 -139.03496641 210.95865374 -145.58984375 191.58349609 C-153.72338288 165.143478 -155.96421077 135.26926187 -148.25 108.4375 C-148.06808105 107.77733887 -147.88616211 107.11717773 -147.69873047 106.43701172 C-141.4707271 84.31340727 -129.62134499 65.30541317 -114.25 48.4375 C-113.39921875 47.50292969 -112.5484375 46.56835938 -111.671875 45.60546875 C-93.64870932 26.74589867 -70.47218304 14.26823625 -45.875 6.1875 C-45.18172607 5.95329346 -44.48845215 5.71908691 -43.77416992 5.4777832 C-29.5256347 1.01220676 -14.84163062 -0.11890374 0 0 Z M-100.15234375 45.49609375 C-102.25 47.4375 -102.25 47.4375 -105.3125 49.8125 C-127.08908676 69.27242859 -139.50748596 98.1871286 -144.25 126.4375 C-144.43304688 127.32953125 -144.61609375 128.2215625 -144.8046875 129.140625 C-148.65491133 157.64579093 -141.76529641 185.47436337 -128.25 210.4375 C-127.75628906 211.35273438 -127.26257813 212.26796875 -126.75390625 213.2109375 C-121.67701986 222.09908421 -115.64173691 230.48613899 -108.01171875 237.33203125 C-107.27808105 238.00411621 -106.54444336 238.67620117 -105.78857422 239.36865234 C-104.33918506 240.6749783 -102.8583032 241.94744085 -101.34423828 243.17822266 C-98.12230442 246.0937456 -96.38719387 248.05656319 -95.94848633 252.47241211 C-96.18164876 256.1779256 -96.67448731 259.76967343 -97.25 263.4375 C-97.41860921 264.79517869 -97.58052664 266.15370349 -97.73608398 267.51293945 C-98.22071974 271.72257153 -98.76250193 275.92347831 -99.3125 280.125 C-99.59258253 282.28243157 -99.8715114 284.43999794 -100.14830017 286.59785461 C-100.39594757 288.52608711 -100.64720492 290.45385498 -100.89868164 292.3815918 C-101.30710569 295.42155551 -101.30710569 295.42155551 -101.25 298.4375 C-97.7573996 297.8023795 -94.48326414 296.92362782 -91.12426758 295.77929688 C-90.13006302 295.44224731 -89.13585846 295.10519775 -88.11152649 294.75793457 C-87.04991806 294.39437866 -85.98830963 294.03082275 -84.89453125 293.65625 C-83.79654709 293.28270386 -82.69856293 292.90915771 -81.56730652 292.52429199 C-79.25115302 291.73561267 -76.93551569 290.94541608 -74.62036133 290.15380859 C-71.06645962 288.93885366 -67.5109161 287.72880607 -63.95507812 286.51953125 C-61.7056312 285.75289157 -59.45627893 284.98597406 -57.20703125 284.21875 C-56.13935013 283.85519409 -55.07166901 283.49163818 -53.97163391 283.11706543 C-52.98688583 282.78001587 -52.00213776 282.44296631 -50.98754883 282.09570312 C-50.11882645 281.79893677 -49.25010406 281.50217041 -48.35505676 281.19641113 C-46.23298348 280.4778927 -46.23298348 280.4778927 -44.25 279.4375 C-39.24156239 279.19665035 -34.82114646 279.79719418 -29.9375 280.875 C3.06025704 288.13380522 39.91008235 283.2252686 69.75 267.4375 C70.39775391 267.10379395 71.04550781 266.77008789 71.71289062 266.42626953 C93.53640372 255.11915949 112.70002226 238.38779021 125.75 217.4375 C126.14268066 216.80875977 126.53536133 216.18001953 126.93994141 215.53222656 C144.63725491 186.70863286 152.0548069 150.67684924 144.24169922 117.45703125 C144.07943848 116.79058594 143.91717773 116.12414062 143.75 115.4375 C143.58902832 114.75558594 143.42805664 114.07367188 143.26220703 113.37109375 C138.12515002 92.25043666 127.68388394 73.98398718 113.75 57.4375 C113.09 56.65375 112.43 55.87 111.75 55.0625 C91.6863078 31.86385589 64.05261121 17.93186481 34.75 10.4375 C34.0477832 10.25670898 33.34556641 10.07591797 32.62207031 9.88964844 C22.02795364 7.31408503 11.34613965 7.15837754 0.5 7.125 C-0.17550903 7.12123352 -0.85101807 7.11746704 -1.54699707 7.11358643 C-38.05708916 7.01041297 -73.46556067 20.5450364 -100.15234375 45.49609375 Z " fill="#FAFCFE" transform="translate(255.25,102.5625)"/>
<path d="M0 0 C5.94 0 11.88 0 18 0 C18 27.72 18 55.44 18 84 C12.39 84 6.78 84 1 84 C0.67 82.35 0.34 80.7 0 79 C-0.639375 79.598125 -1.27875 80.19625 -1.9375 80.8125 C-8.32607433 85.37576738 -14.45520918 86.65593184 -22.2265625 85.6328125 C-29.31424925 84.015622 -35.38737263 80.77651375 -39.81640625 74.9296875 C-44.7469183 66.8911629 -45.49979752 57.33843001 -43.34375 48.2265625 C-40.62242957 40.60217337 -36.05275411 34.2362928 -28.75 30.5 C-21.0742028 27.5628327 -13.49674517 28.40278523 -5.875 31.05078125 C-4 32 -4 32 -1 35 C-0.67 23.45 -0.34 11.9 0 0 Z " fill="#F9FBFE" transform="translate(192,208)"/>
<path d="M0 0 C5.94 0 11.88 0 18 0 C18 27.72 18 55.44 18 84 C12.72 84 7.44 84 2 84 C1.67 82.02 1.34 80.04 1 78 C0.57589844 78.40992188 0.15179688 78.81984375 -0.28515625 79.2421875 C-5.31253266 83.86074429 -9.4194601 85.66221322 -16.3125 86.3125 C-25.28477405 85.55213779 -31.33315217 82.9211008 -37.859375 76.58984375 C-42.89978948 70.49167806 -44.70106247 63.30227156 -44.31640625 55.47265625 C-43.18752908 46.6506902 -40.16113589 38.99764282 -32.97265625 33.4296875 C-26.44918329 29.17788948 -20.73490306 28.34411641 -13 29 C-8.5274918 30.05638997 -4.82853677 31.44764215 -1 34 C-0.67 22.78 -0.34 11.56 0 0 Z " fill="#FBFCFE" transform="translate(321,208)"/>
<path d="M0 0 C5.070639 3.73959626 7.25662219 9.10971032 9.1875 14.90234375 C9.1875 19.52234375 9.1875 24.14234375 9.1875 28.90234375 C-4.0125 28.90234375 -17.2125 28.90234375 -30.8125 28.90234375 C-27.7421274 35.39279333 -27.7421274 35.39279333 -21.8125 37.90234375 C-17.82730573 38.46495941 -14.63057153 38.29359535 -10.9375 36.52734375 C-8.75330167 34.93125456 -8.75330167 34.93125456 -6.8125 32.90234375 C-3.32055411 33.25303062 -0.89987268 35.00371852 1.9375 36.96484375 C2.73671875 37.51269531 3.5359375 38.06054688 4.359375 38.625 C4.96265625 39.04652344 5.5659375 39.46804688 6.1875 39.90234375 C4.23218809 44.30881221 1.38737517 46.65241062 -2.8125 48.90234375 C-14.11302241 53.14003965 -23.76612439 52.81037411 -34.8125 47.90234375 C-42.06245699 43.13697711 -47.01464602 37.48929667 -48.8125 28.90234375 C-49.97212597 20.40217281 -48.57617096 14.03469087 -43.8125 6.90234375 C-32.71309991 -6.59692663 -14.69643211 -8.90020996 0 0 Z " fill="#FAFCFE" transform="translate(262.8125,242.09765625)"/>
<path d="M0 0 C1.5623593 0.00056958 1.5623593 0.00056958 3.15628141 0.00115067 C4.95147501 -0.00183591 4.95147501 -0.00183591 6.78293514 -0.00488281 C8.1280691 -0.00202923 9.47320286 0.00091638 10.81833643 0.00394398 C12.2340062 0.0035084 13.6496759 0.00263375 15.06534517 0.00135481 C18.97383583 -0.0008928 22.88229936 0.00313476 26.79078656 0.00813287 C30.9987156 0.01243339 35.20664299 0.01099124 39.41457361 0.0102306 C46.71118848 0.00970511 54.00779443 0.01285451 61.30440706 0.01846844 C71.8542094 0.02658007 82.40400741 0.02919831 92.95381253 0.03045643 C110.06831916 0.03264748 127.18282103 0.039309 144.29732507 0.04875904 C160.92688212 0.05793179 177.55643788 0.06501329 194.18599695 0.06926686 C195.72241209 0.06966094 195.72241209 0.06966094 197.28986592 0.07006299 C202.42813172 0.07136798 207.56639752 0.0726317 212.70466334 0.07387489 C255.36193734 0.08424916 298.01920616 0.10186891 340.67647547 0.1241985 C340.34647547 1.4441985 340.01647547 2.7641985 339.67647547 4.1241985 C338.02647547 3.4641985 336.37647547 2.8041985 334.67647547 2.1241985 C334.34647547 3.4441985 334.01647547 4.7641985 333.67647547 6.1241985 C221.80647547 6.1241985 109.93647547 6.1241985 -5.32352453 6.1241985 C-2.93663345 0.15697078 -2.93663345 0.15697078 0 0 Z " fill="#A9A9A9" transform="translate(90.3235245347023,46.875801503658295)"/>
<path d="M0 0 C1.5623593 0.00056958 1.5623593 0.00056958 3.15628141 0.00115067 C4.95147501 -0.00183591 4.95147501 -0.00183591 6.78293514 -0.00488281 C8.1280691 -0.00202923 9.47320286 0.00091638 10.81833643 0.00394398 C12.2340062 0.0035084 13.6496759 0.00263375 15.06534517 0.00135481 C18.97383583 -0.0008928 22.88229936 0.00313476 26.79078656 0.00813287 C30.9987156 0.01243339 35.20664299 0.01099124 39.41457361 0.0102306 C46.71118848 0.00970511 54.00779443 0.01285451 61.30440706 0.01846844 C71.8542094 0.02658007 82.40400741 0.02919831 92.95381253 0.03045643 C110.06831916 0.03264748 127.18282103 0.039309 144.29732507 0.04875904 C160.92688212 0.05793179 177.55643788 0.06501329 194.18599695 0.06926686 C195.72241209 0.06966094 195.72241209 0.06966094 197.28986592 0.07006299 C202.42813172 0.07136798 207.56639752 0.0726317 212.70466334 0.07387489 C255.36193734 0.08424916 298.01920616 0.10186891 340.67647547 0.1241985 C340.34647547 1.4441985 340.01647547 2.7641985 339.67647547 4.1241985 C339.01647547 3.7941985 338.35647547 3.4641985 337.67647547 3.1241985 C335.8457492 3.03139476 334.01157425 3.00410859 332.17849916 3.00673729 C331.00307955 3.00597964 329.82765994 3.00522199 328.61662155 3.00444138 C326.66257843 3.010857 326.66257843 3.010857 324.66905969 3.01740223 C323.28012687 3.01839752 321.89119368 3.01894784 320.50226051 3.01908922 C316.67215648 3.02074085 312.84208615 3.02862368 309.01199287 3.03745097 C304.88649047 3.04585641 300.76098423 3.04847617 296.6354751 3.05170399 C289.48239404 3.05801199 282.32932432 3.06775851 275.1762504 3.07959896 C264.82965559 3.09654605 254.48306363 3.10611988 244.13645802 3.1134777 C227.34543182 3.12543357 210.55441008 3.14038673 193.76338953 3.15862232 C192.75773259 3.15971245 191.75207566 3.16080257 190.71594428 3.16192573 C176.4425964 3.17753776 162.16925394 3.19613004 147.89591132 3.2159236 C146.89086077 3.21731691 145.88581022 3.21871023 144.85030359 3.22014576 C143.84647314 3.22153929 142.84264269 3.22293282 141.80839314 3.22436858 C125.08413027 3.2473855 108.35987091 3.26271275 91.63559467 3.27170515 C81.31246439 3.27756642 70.98938213 3.28996291 60.66627078 3.31067794 C53.59492426 3.32436357 46.52359458 3.3308777 39.45223494 3.33168805 C35.3687582 3.33239363 31.28535316 3.33642628 27.2018947 3.34915119 C23.46634543 3.36073106 19.730908 3.36316266 15.9953451 3.35820901 C13.99815824 3.35798516 12.00097797 3.36768762 10.00381619 3.37769902 C8.82318108 3.37433362 7.64254598 3.37096822 6.42613405 3.36750084 C5.40501107 3.36880235 4.38388808 3.37010387 3.33182198 3.37144482 C0.62836701 3.11971899 -1.01407081 2.51044196 -3.32352453 1.1241985 C-2.32352453 0.1241985 -2.32352453 0.1241985 0 0 Z " fill="#B7B7B7" transform="translate(90.3235245347023,46.875801503658295)"/>
<path d="M0 0 C0.66 0 1.32 0 2 0 C3.04034441 3.12103322 3.12531297 5.27476913 3.12584114 8.5485239 C3.12844889 9.70975098 3.13105664 10.87097806 3.13374341 12.06739384 C3.13151268 13.34908591 3.12928196 14.63077798 3.12698364 15.9513092 C3.12813523 17.32190713 3.12972301 18.69250474 3.13171089 20.06310171 C3.13589898 23.83779328 3.13381585 27.61245968 3.13072467 31.38715136 C3.12846871 35.45466131 3.13195115 39.52216683 3.13470459 43.5896759 C3.13915904 51.56096261 3.13818729 59.53223991 3.13529195 67.50352699 C3.13303681 73.97941243 3.13272588 80.45529523 3.13381577 86.93118095 C3.133969 87.85161697 3.13412223 88.77205299 3.13428011 89.720381 C3.13459982 91.59000894 3.13492403 93.45963688 3.1352527 95.32926481 C3.1381065 112.87423431 3.13482195 130.41919859 3.12945233 147.96416723 C3.12498364 163.03218506 3.12576096 178.1001952 3.13037109 193.16821289 C3.13571734 210.65044085 3.1378326 228.13266424 3.13475883 245.6148929 C3.13444027 247.47747354 3.1341259 249.34005417 3.13381577 251.20263481 C3.13366149 252.11915303 3.13350721 253.03567125 3.13334826 253.97996275 C3.13248331 260.45170605 3.1339455 266.92344644 3.13629532 273.39518929 C3.13909403 281.27676574 3.1383535 289.15833222 3.13301457 297.03990752 C3.13037865 301.06438627 3.12937068 305.08884838 3.13266373 309.11332703 C3.13562886 312.7925812 3.13403022 316.47180321 3.12868617 320.15105443 C3.12702809 322.1228195 3.13031761 324.09458678 3.13374341 326.06634957 C3.13113566 327.2249689 3.12852791 328.38358823 3.12584114 329.57731724 C3.12567879 330.58346878 3.12551644 331.58962031 3.12534916 332.62626129 C3 335 3 335 2 337 C1.34 337 0.68 337 0 337 C0 225.79 0 114.58 0 0 Z " fill="#B7B7B7" transform="translate(45,90)"/>
<path d="M0 0 C5.61 0 11.22 0 17 0 C17 17.49 17 34.98 17 53 C11.39 53 5.78 53 0 53 C0 35.51 0 18.02 0 0 Z " fill="#FFFFFF" transform="translate(346,239)"/>
<path d="M0 0 C3.88924158 1.8057193 5.51165031 3.26747547 7.875 6.8125 C9.38220099 11.0829028 9.89488312 14.54791914 8.30859375 18.89453125 C6.70259138 22.08637697 5.24097461 23.82627412 2.3125 25.9375 C-3.40044475 27.76995398 -7.94627845 28.02686078 -13.375 25.3125 C-16.79351181 22.30095388 -18.68960411 20.28773267 -19.31640625 15.66796875 C-19.58174568 9.95889129 -18.96034019 6.40037799 -15 2 C-10.34098652 -0.92448898 -5.31647249 -0.61640261 0 0 Z " fill="#1E7BF3" transform="translate(314,252)"/>
<path d="M0 0 C3.07893658 2.17778441 4.22972253 3.25842675 5.5625 6.8125 C6.27643433 11.4711018 6.66738617 15.82509469 4.3203125 20.046875 C1.41179091 23.54867711 -0.7548791 25.49536846 -5.453125 26.05078125 C-11.35252843 26.24674045 -14.73667717 25.47914181 -19.4375 21.8125 C-22.40565855 17.08199731 -22.85905425 13.27597658 -22.015625 7.89453125 C-20.96003653 4.09298629 -18.94351041 1.72445513 -15.60546875 -0.296875 C-10.58116154 -2.36091472 -5.02192131 -1.73484554 0 0 Z " fill="#1E7BF3" transform="translate(187.4375,253.1875)"/>
<path d="M0 0 C3.99615552 2.44209504 5.65211705 3.9929704 7.1875 8.4375 C6.93037273 13.32291805 5.45582393 14.62454407 2 18 C-1.06429776 19.53214888 -3.6165642 19.22938548 -7 19 C-9.82689795 17.74360091 -11.47004961 16.67448232 -13.375 14.25 C-14.31697802 10.85887913 -13.84752199 8.39008797 -13 5 C-9.10742308 0.2284541 -6.12217981 -0.61221798 0 0 Z " fill="#FBFCFE" transform="translate(358,212)"/>
<path d="M0 0 C3.65409572 1.6609526 5.94545919 3.53972074 8 7 C8 7.99 8 8.98 8 10 C0.41 10 -7.18 10 -15 10 C-13.90260429 4.51302144 -13.35725308 3.97568503 -9 1 C-5.93570224 -0.53214888 -3.3834358 -0.22938548 0 0 Z " fill="#1E7BF3" transform="translate(247,249)"/>
<path d="M0 0 C-0.33333333 1.33333333 -0.66666667 2.66666667 -1 4 C-1.0928125 5.0209375 -1.0928125 5.0209375 -1.1875 6.0625 C-2.48479927 9.1560598 -5.03843056 9.73975768 -8 11 C-8 10.34 -8 9.68 -8 9 C-10.62901288 10.52206009 -12.84365964 11.84365964 -15 14 C-15.99 14 -16.98 14 -18 14 C-15.28649927 7.70080189 -7.19774339 0 0 0 Z " fill="#A3A4A5" transform="translate(71,50)"/>
<path d="M0 0 C-0.99 0.495 -0.99 0.495 -2 1 C-2.33 2.98 -2.66 4.96 -3 7 C-8.94 6.01 -8.94 6.01 -15 5 C-14.67 3.68 -14.34 2.36 -14 1 C-12.35 1.33 -10.7 1.66 -9 2 C-9.33 1.34 -9.66 0.68 -10 0 C-6.7169902 -1.6415049 -3.57454967 -0.51888624 0 0 Z " fill="#A2A3A4" transform="translate(439,48)"/>
<path d="M0 0 C0.66 0.33 1.32 0.66 2 1 C2 1.99 2 2.98 2 4 C-3.23255814 9 -3.23255814 9 -7 9 C-5.44499019 5.18315774 -2.96404505 2.80804268 0 0 Z " fill="#999999" transform="translate(60,55)"/>
<path d="M0 0 C2.475 0.99 2.475 0.99 5 2 C5 3.32 5 4.64 5 6 C5.99 6.66 6.98 7.32 8 8 C6.02 8.99 6.02 8.99 4 10 C3.32845067 8.71086513 2.66291141 7.41859796 2 6.125 C1.62875 5.40570313 1.2575 4.68640625 0.875 3.9453125 C0 2 0 2 0 0 Z " fill="#A1A1A1" transform="translate(47,442)"/>
<path d="M0 0 C0.66 0 1.32 0 2 0 C2 0.99 2 1.98 2 3 C2.66 3 3.32 3 4 3 C4 3.66 4 4.32 4 5 C1.69 5.66 -0.62 6.32 -3 7 C-2.690625 6.401875 -2.38125 5.80375 -2.0625 5.1875 C-0.89790296 2.91043228 -0.89790296 2.91043228 0 0 Z " fill="#ACACAC" transform="translate(71,50)"/>
<path d="M0 0 C0.99 0.33 1.98 0.66 3 1 C1.68 3.31 0.36 5.62 -1 8 C-1.33 8 -1.66 8 -2 8 C-2.33 6.02 -2.66 4.04 -3 2 C-2.01 2 -1.02 2 0 2 C0 1.34 0 0.68 0 0 Z " fill="#9A9A9A" transform="translate(460,449)"/>
</svg>
