<?xml version="1.0" encoding="UTF-8"?>
<svg id="Layer_1" xmlns="http://www.w3.org/2000/svg" version="1.1" xmlns:xlink="http://www.w3.org/1999/xlink" viewBox="0 0 130 24">
  <!-- Generator: Adobe Illustrator 29.8.1, SVG Export Plug-In . SVG Version: 2.1.1 Build 2)  -->
  <defs>
    <style>
      .st0 {
        fill: url(#linear-gradient2);
      }

      .st1 {
        fill: #fff;
      }

      .st2 {
        fill: url(#linear-gradient1);
      }

      .st3 {
        fill: #fafcfe;
      }

      .st4 {
        fill: none;
      }

      .st5 {
        fill: url(#linear-gradient4);
      }

      .st6 {
        font-family: FranklinGothic-Medium, 'Franklin Gothic Medium';
        font-size: 17.96px;
        font-weight: 500;
        letter-spacing: .07em;
      }

      .st7 {
        fill: url(#linear-gradient3);
      }

      .st8 {
        fill: #fbfcfe;
      }

      .st9 {
        fill: url(#linear-gradient);
      }

      .st10 {
        fill: #f9fbfe;
      }

      .st11 {
        clip-path: url(#clippath);
      }
    </style>
    <linearGradient id="linear-gradient" x1="80.48" y1="23.67" x2="91.39" y2="-2.92" gradientTransform="translate(0 26) scale(1 -1)" gradientUnits="userSpaceOnUse">
      <stop offset="0" stop-color="#a5acdf"/>
      <stop offset="1" stop-color="#424fb3"/>
    </linearGradient>
    <linearGradient id="linear-gradient1" x1="88.71" y1="27.05" x2="99.62" y2=".46" gradientTransform="translate(0 26) scale(1 -1)" gradientUnits="userSpaceOnUse">
      <stop offset="0" stop-color="#a5acdf"/>
      <stop offset="1" stop-color="#424fb3"/>
    </linearGradient>
    <linearGradient id="linear-gradient2" x1="99.27" y1="31.39" x2="110.18" y2="4.8" gradientTransform="translate(0 26) scale(1 -1)" gradientUnits="userSpaceOnUse">
      <stop offset="0" stop-color="#a5acdf"/>
      <stop offset="1" stop-color="#424fb3"/>
    </linearGradient>
    <linearGradient id="linear-gradient3" x1="107.4" y1="34.72" x2="118.31" y2="8.13" gradientTransform="translate(0 26) scale(1 -1)" gradientUnits="userSpaceOnUse">
      <stop offset="0" stop-color="#a5acdf"/>
      <stop offset="1" stop-color="#424fb3"/>
    </linearGradient>
    <clipPath id="clippath">
      <rect class="st4" x="2.42" y=".98" width="21.18" height="21.18"/>
    </clipPath>
    <linearGradient id="linear-gradient4" x1="6.22" y1="6.66" x2="21.15" y2="23.73" gradientTransform="translate(0 26) scale(1 -1)" gradientUnits="userSpaceOnUse">
      <stop offset="0" stop-color="#1e7bf3"/>
      <stop offset=".99" stop-color="#a9bcff"/>
    </linearGradient>
  </defs>
  <path class="st9" d="M84.45,18.06c-1.29,0-2.47-.3-3.53-.91-1.05-.62-1.88-1.45-2.49-2.5-.61-1.05-.91-2.2-.91-3.45s.29-2.42.87-3.47c.59-1.06,1.42-1.9,2.47-2.5,1.05-.62,2.24-.93,3.59-.93,1.07,0,2,.17,2.77.51.78.33,1.48.85,2.09,1.57l-1.88,1.63c-.8-.83-1.79-1.25-2.98-1.25-.83,0-1.57.2-2.2.61-.63.39-1.12.93-1.46,1.61-.34.67-.51,1.41-.51,2.22s.17,1.55.51,2.22c.35.67.85,1.2,1.48,1.59.65.39,1.39.59,2.24.59,1.24,0,2.25-.43,3.04-1.29l1.93,1.65c-.53.65-1.23,1.16-2.09,1.54-.85.38-1.83.57-2.94.57Z"/>
  <path class="st2" d="M90.37,3.97h2.56v5.35c.53-1.06,1.52-1.59,2.98-1.59.71,0,1.35.17,1.92.51.57.33,1.02.8,1.35,1.42.33.61.49,1.32.49,2.12v6.03h-2.56v-5.41c0-.82-.19-1.44-.57-1.84-.38-.4-.9-.61-1.56-.61-.58,0-1.07.21-1.46.63-.39.4-.59,1.01-.59,1.82v5.41h-2.56V3.97Z"/>
  <path class="st0" d="M105.59,18.06c-.89,0-1.7-.23-2.45-.68-.75-.47-1.34-1.09-1.78-1.88-.43-.78-.64-1.64-.64-2.58s.21-1.8.64-2.58c.44-.8,1.04-1.43,1.78-1.9.75-.47,1.56-.7,2.45-.7.81,0,1.46.15,1.95.46.51.3.9.74,1.18,1.31v-1.56h2.54v9.86h-2.49v-1.61c-.29.59-.69,1.06-1.19,1.38-.49.32-1.16.47-1.99.47ZM103.28,12.91c0,.51.11.98.34,1.42.24.43.56.78.97,1.04.42.25.89.38,1.42.38s1.03-.13,1.44-.38c.43-.25.76-.59.99-1.02.23-.43.34-.9.34-1.42s-.11-.99-.34-1.42c-.23-.44-.56-.79-.99-1.04-.42-.27-.9-.4-1.44-.4s-1,.13-1.42.4c-.42.25-.74.59-.97,1.02-.23.43-.34.9-.34,1.42Z"/>
  <path class="st7" d="M116.52,17.82c-1,0-1.75-.25-2.26-.74-.51-.49-.76-1.26-.76-2.31v-4.63h-1.39v-2.18h1.39v-1.99l2.56-.27v2.26h2.09v2.18h-2.09v4.5c0,.61.26.91.8.91h1.06v2.28h-1.4Z"/>
  <text class="st6" transform="translate(27.75 17.07) scale(1.17 1)"><tspan x="0" y="0">Dedi</tspan></text>
  <g class="st11">
    <g>
      <rect class="st1" x="2.42" y=".98" width="21.19" height="21.19" rx="10.59" ry="10.59"/>
      <rect class="st5" x="2.42" y=".98" width="21.19" height="21.19" rx="10.59" ry="10.59"/>
      <path class="st3" d="M12.98,4.31h.11c.62,0,1.21.05,1.81.21.03,0,.07.02.1.03,1.25.33,2.32.99,3.26,1.87t.1.09c1.09,1.04,1.86,2.65,1.9,4.16,0,.16,0,.33,0,.49q0,.05,0,.1c0,.51-.02,1-.16,1.49,0,.03-.02.06-.02.09-.27.98-.73,1.88-1.4,2.65-.03.04-.07.08-.1.12-1.07,1.23-2.55,2.05-4.16,2.34-.04,0-.09.02-.13.03-.4.07-.79.09-1.19.08-.11,0-.21,0-.32,0-.43,0-.83-.04-1.26-.12-.06-.01-.12-.02-.18-.04-.05-.01-.1-.03-.15-.04-.29-.01-.54.1-.81.2-.06.02-.12.04-.18.06-.19.07-.39.14-.58.21-.22.08-.45.16-.67.24-.09.03-.18.06-.27.1q-.52.18-.79.09c-.11-.16-.1-.19-.08-.38,0-.05.01-.1.02-.15.04-.38.09-.76.14-1.14.01-.09.02-.17.03-.26.03-.21.05-.42.08-.63-.03-.01-.06-.03-.09-.04-.9-.47-1.61-1.87-1.92-2.79-.39-1.25-.49-2.67-.13-3.94,0-.03.02-.06.03-.09.29-1.05.86-1.95,1.58-2.75.04-.04.08-.09.12-.13.85-.89,1.95-1.48,3.11-1.87.03-.01.07-.02.1-.03.67-.21,1.37-.26,2.07-.26ZM8.24,6.46q-.1.09-.24.2c-1.03.92-1.62,2.29-1.84,3.63,0,.04-.02.08-.03.13-.18,1.35.14,2.67.78,3.85.02.04.05.09.07.13.24.42.53.82.89,1.14.03.03.07.06.11.1.07.06.14.12.21.18.15.14.23.23.26.44-.01.18-.03.35-.06.52,0,.06-.02.13-.02.19-.02.2-.05.4-.07.6-.01.1-.03.2-.04.31-.01.09-.02.18-.04.27q-.02.14-.02.29c.17-.03.32-.07.48-.13.05-.02.09-.03.14-.05.05-.02.1-.03.15-.05.05-.02.1-.04.16-.05.11-.04.22-.07.33-.11.17-.06.34-.11.5-.17.11-.04.21-.07.32-.11.05-.02.1-.03.15-.05.05-.02.09-.03.14-.05.04-.01.08-.03.12-.04q.1-.03.19-.08c.24-.01.45.02.68.07,1.56.34,3.31.11,4.72-.64.03-.02.06-.03.09-.05,1.03-.54,1.94-1.33,2.56-2.32.02-.03.04-.06.06-.09.84-1.36,1.19-3.07.82-4.64,0-.03-.02-.06-.02-.1,0-.03-.02-.06-.02-.1-.24-1-.74-1.86-1.4-2.65-.03-.04-.06-.07-.09-.11-.95-1.1-2.26-1.76-3.65-2.11-.03,0-.07-.02-.1-.03-.5-.12-1.01-.13-1.52-.13-.03,0-.06,0-.1,0-1.73,0-3.4.64-4.67,1.82Z"/>
      <path class="st1" d="M17.28,10.77h.8v2.51h-.8v-2.51Z"/>
      <path class="st8" d="M16.09,9.3c-.02.55-.03,1.08-.05,1.61-.18-.12-.36-.19-.57-.24-.37-.03-.64,0-.95.21-.34.26-.48.63-.54,1.04-.02.37.07.71.31,1,.31.3.6.42,1.02.46.33-.03.52-.12.76-.33.02-.02.04-.04.06-.06.02.1.03.19.05.28h.76v-3.98h-.85ZM16.16,12.28c-.08.15-.15.23-.28.33-.27.09-.49.1-.74-.03-.16-.14-.25-.24-.28-.46-.01-.27.02-.44.2-.65.22-.14.47-.16.71-.09.2.06.26.15.37.32.07.2.1.37.02.57Z"/>
      <path class="st10" d="M9.99,9.3c-.02.56-.03,1.11-.05,1.66q-.14-.14-.23-.19c-.36-.13-.72-.17-1.08-.03-.35.18-.56.48-.69.84-.1.43-.07.88.17,1.26.21.28.5.43.83.51.37.05.66-.01.96-.23.03-.03.06-.06.09-.09.02.08.03.16.05.24h.8v-3.98h-.85ZM9.98,12.39c-.14.17-.24.26-.46.28-.28,0-.44-.03-.66-.2-.14-.22-.16-.4-.12-.66.05-.18.15-.29.3-.39.24-.1.51-.1.74.01.16.08.2.15.26.32.03.22.05.43-.06.63Z"/>
      <path class="st8" d="M17.85,9.49c.6.26.27,1.05-.33.9-.62-.2-.27-1.07.33-.9Z"/>
      <path class="st3" d="M13.77,11.62c-.09-.27-.19-.53-.43-.71-.7-.42-1.55-.31-2.07.33-.23.34-.29.64-.24,1.04.09.41.32.67.66.9.52.23.98.25,1.51.05.2-.11.33-.22.43-.43-.03-.02-.06-.04-.09-.06-.04-.03-.08-.05-.11-.08-.13-.09-.25-.18-.41-.19q-.09.1-.2.17c-.17.08-.33.09-.51.07q-.28-.12-.43-.43h1.89v-.66ZM12.97,11.71h-1.09c.05-.26.08-.29.28-.43.15-.07.27-.09.43-.05.19.06.26.15.36.33.02.04.02.1.02.15Z"/>
    </g>
  </g>
</svg>