<?xml version="1.0" encoding="UTF-8"?>
<svg id="Layer_1" xmlns="http://www.w3.org/2000/svg" version="1.1" xmlns:xlink="http://www.w3.org/1999/xlink" viewBox="0 0 196 196">
  <!-- Generator: Adobe Illustrator 29.8.1, SVG Export Plug-In . SVG Version: 2.1.1 Build 2)  -->
  <defs>
    <style>
      .st0 {
        fill: #fff;
      }

      .st1 {
        fill: #fafcfe;
      }

      .st2 {
        fill: none;
      }

      .st3 {
        fill: #fbfcfe;
      }

      .st4 {
        fill: url(#linear-gradient);
      }

      .st5 {
        fill: #f9fbfe;
      }

      .st6 {
        clip-path: url(#clippath);
      }
    </style>
    <clipPath id="clippath">
      <rect class="st2" width="196" height="196"/>
    </clipPath>
    <linearGradient id="linear-gradient" x1="26.41" y1="18.08" x2="183.91" y2="198.08" gradientTransform="translate(0 198) scale(1 -1)" gradientUnits="userSpaceOnUse">
      <stop offset="0" stop-color="#1e7bf3"/>
      <stop offset=".99" stop-color="#a9bcff"/>
    </linearGradient>
  </defs>
  <g class="st6">
    <g>
      <rect class="st0" x="0" width="196.1" height="196.1" rx="64.76" ry="64.76"/>
      <rect class="st4" x="0" width="196.1" height="196.1" rx="64.76" ry="64.76"/>
      <path class="st1" d="M97.77,30.82q.53,0,1.06,0c5.74.03,11.22.46,16.79,1.94.32.08.63.16.96.25,11.54,3.07,21.51,9.13,30.15,17.28q.44.41.9.82c10.12,9.66,17.21,24.54,17.62,38.55.03,1.52.03,3.03.02,4.55q0,.48,0,.96c-.02,4.73-.22,9.23-1.45,13.82-.08.29-.15.57-.23.86-2.46,9.11-6.72,17.41-12.92,24.55-.3.36-.61.72-.92,1.09-9.94,11.39-23.64,19-38.51,21.7-.4.08-.81.15-1.22.23-3.7.65-7.31.79-11.05.78-.98,0-1.96,0-2.94.02-3.98.02-7.72-.37-11.62-1.15-.55-.11-1.09-.21-1.66-.33-.46-.13-.91-.25-1.38-.38-2.7-.09-5.01.92-7.53,1.83-.57.2-1.14.4-1.7.59-1.79.63-3.59,1.26-5.38,1.9-2.08.74-4.15,1.47-6.23,2.2-.83.29-1.65.59-2.48.89q-4.85,1.69-7.28.86c-1-1.49-.96-1.76-.78-3.47.05-.47.1-.94.15-1.42.42-3.52.86-7.04,1.32-10.55.1-.8.21-1.6.31-2.4.25-1.94.5-3.88.76-5.82-.27-.13-.54-.26-.82-.39-8.3-4.33-14.86-17.35-17.73-25.84-3.56-11.58-4.55-24.67-1.17-36.43.08-.29.16-.58.24-.88,2.73-9.69,7.92-18.02,14.66-25.41.37-.41.75-.82,1.13-1.24,7.9-8.26,18.05-13.73,28.83-17.27.3-.1.61-.21.92-.31,6.24-1.96,12.68-2.45,19.18-2.4ZM53.88,50.75q-.92.85-2.26,1.89c-9.54,8.53-14.98,21.2-17.06,33.57-.08.39-.16.78-.24,1.18-1.69,12.49,1.33,24.68,7.25,35.62.22.4.43.8.66,1.22,2.22,3.89,4.87,7.57,8.21,10.57.32.29.64.59.97.89.64.57,1.28,1.13,1.95,1.67,1.41,1.28,2.17,2.14,2.36,4.07-.1,1.62-.32,3.2-.57,4.8-.07.59-.14,1.19-.21,1.79-.21,1.84-.45,3.69-.69,5.53-.12.95-.24,1.89-.37,2.84-.11.84-.22,1.69-.33,2.53q-.18,1.33-.15,2.65c1.53-.28,2.96-.66,4.44-1.16.44-.15.87-.3,1.32-.45.47-.16.93-.32,1.41-.48.48-.16.96-.33,1.46-.5,1.01-.35,2.03-.69,3.04-1.04,1.56-.53,3.11-1.06,4.67-1.59.99-.34,1.97-.67,2.96-1.01.47-.16.94-.32,1.42-.48.43-.15.86-.3,1.31-.45.38-.13.76-.26,1.15-.39q.93-.31,1.8-.77c2.19-.11,4.13.16,6.27.63,14.46,3.18,30.6,1.03,43.68-5.89.28-.15.57-.29.86-.44,9.56-4.95,17.96-12.28,23.68-21.46.17-.28.34-.55.52-.83,7.75-12.63,11-28.42,7.58-42.97-.07-.29-.14-.58-.22-.88-.07-.3-.14-.6-.21-.91-2.25-9.25-6.83-17.26-12.93-24.51-.29-.34-.58-.69-.88-1.04-8.79-10.16-20.9-16.27-33.74-19.55-.31-.08-.62-.16-.93-.24-4.64-1.13-9.32-1.2-14.07-1.21-.3,0-.59,0-.9,0-16-.05-31.51,5.88-43.2,16.82Z"/>
      <path class="st0" d="M137.53,90.6h7.45v23.22h-7.45v-23.22Z"/>
      <path class="st3" d="M126.57,77.01c-.15,5.06-.29,9.98-.44,14.9-1.68-1.12-3.3-1.73-5.26-2.19-3.39-.29-5.89.08-8.75,1.94-3.15,2.44-4.48,5.79-4.97,9.66-.17,3.43.62,6.58,2.83,9.25,2.86,2.77,5.51,3.93,9.44,4.26,3.02-.28,4.82-1.07,7.02-3.1.19-.19.38-.36.56-.54.15.89.29,1.76.44,2.63h7.01v-36.8h-7.89ZM127.15,104.57c-.7,1.4-1.34,2.16-2.63,3.09-2.5.8-4.49.92-6.87-.27-1.5-1.32-2.33-2.2-2.6-4.23-.12-2.5.16-4.06,1.89-5.99,2.04-1.28,4.32-1.51,6.57-.88,1.81.51,2.41,1.43,3.45,2.98.66,1.87.89,3.39.19,5.29Z"/>
      <path class="st5" d="M70.05,77.01c-.15,5.21-.29,10.27-.44,15.34q-1.31-1.31-2.14-1.73c-3.34-1.16-6.66-1.53-10.02-.24-3.2,1.64-5.2,4.43-6.39,7.77-.94,3.99-.61,8.18,1.55,11.7,1.94,2.56,4.6,3.98,7.71,4.69,3.4.45,6.09-.11,8.89-2.11.29-.27.57-.53.85-.79.15.74.29,1.47.44,2.19h7.45v-36.8h-7.89ZM69.95,105.6c-1.27,1.53-2.22,2.39-4.28,2.63-2.58.09-4.07-.25-6.13-1.86-1.3-2.07-1.5-3.74-1.13-6.1.46-1.67,1.35-2.7,2.81-3.59,2.2-.9,4.77-.93,6.84.13,1.47.75,1.85,1.43,2.44,2.98.31,2.04.48,3.95-.54,5.8Z"/>
      <path class="st3" d="M142.79,78.77c5.57,2.38,2.51,9.74-3.07,8.32-5.76-1.84-2.47-9.87,3.07-8.32Z"/>
      <path class="st1" d="M105.1,98.48c-.85-2.54-1.8-4.89-4.03-6.53-6.44-3.9-14.33-2.89-19.2,3.02-2.09,3.12-2.7,5.91-2.19,9.64.79,3.76,2.96,6.24,6.13,8.32,4.84,2.15,9.07,2.29,14.02.44,1.84-.99,3.09-2.01,3.94-3.94-.27-.19-.54-.37-.8-.56-.36-.25-.71-.49-1.06-.73-1.24-.86-2.3-1.63-3.83-1.78q-.85.89-1.81,1.59c-1.62.77-3.02.85-4.76.6q-2.6-1.1-3.94-3.94h17.53v-6.13ZM97.66,99.36h-10.08c.48-2.4.72-2.64,2.63-3.94,1.34-.67,2.52-.88,3.94-.44,1.73.53,2.41,1.37,3.3,3.02.21.38.21.91.21,1.36Z"/>
    </g>
  </g>
</svg>