<svg viewBox="0 0 1000 1000" xmlns="http://www.w3.org/2000/svg">
<defs>
<linearGradient id="bg" x1="0%" y1="0%" x2="100%" y2="100%">
<stop offset="0%" style="stop-color:#0A1128"/>
<stop offset="100%" style="stop-color:#1C2541"/>
</linearGradient>
<linearGradient id="qr" x1="0%" y1="0%" x2="100%" y2="100%">
<stop offset="0%" style="stop-color:#00D9FF"/>
<stop offset="50%" style="stop-color:#1C7AF2"/>
<stop offset="100%" style="stop-color:#00A8FF"/>
</linearGradient>
<filter id="glow">
<feGaussianBlur stdDeviation="4" result="blur"/>
<feMerge><feMergeNode in="blur"/><feMergeNode in="SourceGraphic"/></feMerge>
</filter>
</defs>
<rect width="1000" height="1000" fill="url(#bg)"/>
<rect x="80" y="80" width="840" height="840" rx="50" fill="none" stroke="url(#qr)" stroke-width="4" filter="url(#glow)" opacity="0.5"/>
<g fill="url(#qr)" filter="url(#glow)">
<rect x="120" y="120" width="200" height="200" rx="25"/>
<rect x="150" y="150" width="140" height="140" rx="20" fill="#0A1128"/>
<rect x="180" y="180" width="80" height="80" rx="15" fill="url(#qr)"/>
<rect x="680" y="120" width="200" height="200" rx="25"/>
<rect x="710" y="150" width="140" height="140" rx="20" fill="#0A1128"/>
<rect x="740" y="180" width="80" height="80" rx="15" fill="url(#qr)"/>
<rect x="120" y="680" width="200" height="200" rx="25"/>
<rect x="150" y="710" width="140" height="140" rx="20" fill="#0A1128"/>
<rect x="180" y="740" width="80" height="80" rx="15" fill="url(#qr)"/>
</g><g fill="url(#qr)" opacity="0.95">
<circle cx="380" cy="160" r="18"/><circle cx="430" cy="160" r="18"/><circle cx="480" cy="160" r="18"/>
<circle cx="580" cy="160" r="18"/><circle cx="630" cy="160" r="18"/>
<rect x="350" y="195" width="35" height="35" rx="10"/><rect x="440" y="195" width="35" height="35" rx="10"/>
<rect x="530" y="195" width="35" height="35" rx="10"/><rect x="620" y="195" width="35" height="35" rx="10"/>
<circle cx="380" cy="270" r="18"/><circle cx="480" cy="270" r="18"/><circle cx="530" cy="270" r="18"/>
<circle cx="630" cy="270" r="18"/><rect x="400" y="305" width="35" height="35" rx="10"/>
<rect x="490" y="305" width="35" height="35" rx="10"/><rect x="580" y="305" width="35" height="35" rx="10"/>
<circle cx="380" cy="380" r="18"/><circle cx="430" cy="380" r="18"/><circle cx="530" cy="380" r="18"/>
<circle cx="630" cy="380" r="18"/><rect x="350" y="415" width="35" height="35" rx="10"/>
<rect x="490" y="415" width="35" height="35" rx="10"/><rect x="580" y="415" width="35" height="35" rx="10"/>
<circle cx="430" cy="490" r="18"/><circle cx="530" cy="490" r="18"/><circle cx="630" cy="490" r="18"/>
<rect x="400" y="525" width="35" height="35" rx="10"/><rect x="490" y="525" width="35" height="35" rx="10"/>
<rect x="350" y="580" width="35" height="35" rx="10"/><rect x="440" y="580" width="35" height="35" rx="10"/>
<rect x="580" y="580" width="35" height="35" rx="10"/><circle cx="380" cy="650" r="18"/>
<circle cx="480" cy="650" r="18"/><circle cx="580" cy="650" r="18"/><circle cx="630" cy="650" r="18"/>
<rect x="730" y="350" width="35" height="35" rx="10"/><rect x="820" y="350" width="35" height="35" rx="10"/>
<circle cx="750" cy="420" r="18"/><circle cx="800" cy="420" r="18"/><circle cx="850" cy="420" r="18"/>
<rect x="730" y="455" width="35" height="35" rx="10"/><rect x="820" y="455" width="35" height="35" rx="10"/>
<circle cx="750" cy="530" r="18"/><circle cx="850" cy="530" r="18"/>
<rect x="780" y="565" width="35" height="35" rx="10"/><circle cx="750" cy="640" r="18"/>
<circle cx="800" cy="640" r="18"/><circle cx="850" cy="640" r="18"/>
</g>
<rect x="370" y="370" width="260" height="260" rx="35" fill="#0A1128" stroke="url(#qr)" stroke-width="4" filter="url(#glow)"/>
<ellipse cx="500" cy="500" rx="90" ry="90" fill="#1C7AF2" opacity="0.8"/>
<text x="500" y="960" text-anchor="middle" fill="#00D9FF" font-family="monospace" font-size="24">dedim.com.tr</text>
</svg>